<svg width="7" height="8" viewBox="0 0 7 8" fill="none" xmlns="http://www.w3.org/2000/svg">
<g clip-path="url(#clip0_1_2551)">
<path d="M2.6127 0.9375C2.32969 0.9375 2.07949 1.11797 1.99063 1.38594L1.84707 1.8125H0.875C0.392383 1.8125 0 2.20488 0 2.6875V6.1875C0 6.67012 0.392383 7.0625 0.875 7.0625H6.125C6.60762 7.0625 7 6.67012 7 6.1875V2.6875C7 2.20488 6.60762 1.8125 6.125 1.8125H5.15293L5.01074 1.38594C4.92051 1.11797 4.67031 0.9375 4.3873 0.9375H2.6127ZM2.40488 1.52402C2.43496 1.43516 2.51836 1.375 2.6127 1.375H4.3873C4.48164 1.375 4.56504 1.43516 4.59512 1.52402L4.78652 2.09961C4.8166 2.18848 4.9 2.24863 4.99434 2.24863H6.125C6.36699 2.24863 6.5625 2.44414 6.5625 2.68613V6.1875C6.5625 6.42949 6.36699 6.625 6.125 6.625H0.875C0.633008 6.625 0.4375 6.42949 0.4375 6.1875V2.6875C0.4375 2.44551 0.633008 2.25 0.875 2.25H2.00566C2.1 2.25 2.1834 2.18984 2.21348 2.10098L2.40488 1.52539V1.52402ZM3.5 5.96875C3.70109 5.96875 3.9002 5.92914 4.08598 5.85219C4.27176 5.77524 4.44057 5.66245 4.58276 5.52026C4.72495 5.37807 4.83774 5.20926 4.91469 5.02348C4.99164 4.8377 5.03125 4.63859 5.03125 4.4375C5.03125 4.23641 4.99164 4.0373 4.91469 3.85152C4.83774 3.66574 4.72495 3.49693 4.58276 3.35474C4.44057 3.21255 4.27176 3.09976 4.08598 3.02281C3.9002 2.94586 3.70109 2.90625 3.5 2.90625C3.29891 2.90625 3.0998 2.94586 2.91402 3.02281C2.72824 3.09976 2.55943 3.21255 2.41724 3.35474C2.27505 3.49693 2.16226 3.66574 2.08531 3.85152C2.00836 4.0373 1.96875 4.23641 1.96875 4.4375C1.96875 4.63859 2.00836 4.8377 2.08531 5.02348C2.16226 5.20926 2.27505 5.37807 2.41724 5.52026C2.55943 5.66245 2.72824 5.77524 2.91402 5.85219C3.0998 5.92914 3.29891 5.96875 3.5 5.96875ZM2.40625 4.4375C2.40625 4.14742 2.52148 3.86922 2.7266 3.6641C2.93172 3.45898 3.20992 3.34375 3.5 3.34375C3.79008 3.34375 4.06828 3.45898 4.2734 3.6641C4.47852 3.86922 4.59375 4.14742 4.59375 4.4375C4.59375 4.72758 4.47852 5.00578 4.2734 5.2109C4.06828 5.41602 3.79008 5.53125 3.5 5.53125C3.20992 5.53125 2.93172 5.41602 2.7266 5.2109C2.52148 5.00578 2.40625 4.72758 2.40625 4.4375Z" fill="white"/>
</g>
<defs>
<clipPath id="clip0_1_2551">
<rect width="7" height="7" fill="white" transform="translate(0 0.5)"/>
</clipPath>
</defs>
</svg>
