<svg width="16" height="17" viewBox="0 0 16 17" fill="none" xmlns="http://www.w3.org/2000/svg">
<path d="M3.55 3.56875L2.66563 6.51875C2.775 6.50625 2.8875 6.5 3 6.5H13C13.1125 6.5 13.225 6.50625 13.3344 6.51875L12.45 3.56875C12.2594 2.93437 11.675 2.5 11.0125 2.5H4.9875C4.325 2.5 3.74062 2.93437 3.55 3.56875ZM2.32188 7.61875C1.55 7.89687 1 8.63438 1 9.5V12.5H15V9.5C15 8.63438 14.45 7.89687 13.6781 7.61875L13.6625 7.62187L13.6594 7.6125C13.4531 7.54063 13.2281 7.5 12.9969 7.5H3C2.76875 7.5 2.54688 7.54063 2.3375 7.6125L2.33437 7.62187L2.31875 7.61875H2.32188ZM1.50937 6.89687L1.52188 6.85625L2.59375 3.28125C2.9125 2.225 3.88438 1.5 4.9875 1.5H11.0125C12.1156 1.5 13.0906 2.225 13.4062 3.28125L14.4781 6.85625L14.4906 6.89687C15.3938 7.4125 16 8.38438 16 9.5V12.5V13V13.5V15C16 15.275 15.775 15.5 15.5 15.5C15.225 15.5 15 15.275 15 15V13.5H1V15C1 15.275 0.775 15.5 0.5 15.5C0.225 15.5 0 15.275 0 15V13.5V13V12.5V9.5C0 8.38438 0.60625 7.4125 1.50937 6.89687ZM3.25 9C3.44891 9 3.63968 9.07902 3.78033 9.21967C3.92098 9.36032 4 9.55109 4 9.75C4 9.94891 3.92098 10.1397 3.78033 10.2803C3.63968 10.421 3.44891 10.5 3.25 10.5C3.05109 10.5 2.86032 10.421 2.71967 10.2803C2.57902 10.1397 2.5 9.94891 2.5 9.75C2.5 9.55109 2.57902 9.36032 2.71967 9.21967C2.86032 9.07902 3.05109 9 3.25 9ZM12 9.75C12 9.55109 12.079 9.36032 12.2197 9.21967C12.3603 9.07902 12.5511 9 12.75 9C12.9489 9 13.1397 9.07902 13.2803 9.21967C13.421 9.36032 13.5 9.55109 13.5 9.75C13.5 9.94891 13.421 10.1397 13.2803 10.2803C13.1397 10.421 12.9489 10.5 12.75 10.5C12.5511 10.5 12.3603 10.421 12.2197 10.2803C12.079 10.1397 12 9.94891 12 9.75Z" fill="white" fill-opacity="0.6"/>
</svg>
