<svg width="14" height="15" viewBox="0 0 14 15" fill="none" xmlns="http://www.w3.org/2000/svg">
<g opacity="0.6" clip-path="url(#clip0_1_2669)">
<path d="M0.875 4.10938V1.8125C0.875 1.57187 0.678125 1.375 0.4375 1.375C0.196875 1.375 0 1.57187 0 1.8125V5.3125C0 5.55312 0.196875 5.75 0.4375 5.75H3.9375C4.17812 5.75 4.375 5.55312 4.375 5.3125C4.375 5.07188 4.17812 4.875 3.9375 4.875H1.46562C2.44727 2.80508 4.5582 1.375 7 1.375C10.3824 1.375 13.125 4.11758 13.125 7.5C13.125 10.8824 10.3824 13.625 7 13.625C4.9957 13.625 3.21836 12.6625 2.1 11.175C1.95508 10.9809 1.68164 10.9426 1.4875 11.0875C1.29336 11.2324 1.25508 11.5059 1.4 11.7C2.67695 13.4008 4.70859 14.5 7 14.5C10.8664 14.5 14 11.3664 14 7.5C14 3.63359 10.8664 0.5 7 0.5C4.36406 0.5 2.06992 1.95742 0.875 4.10938ZM7 4C6.75938 4 6.5625 4.19688 6.5625 4.4375V7.5C6.5625 7.61484 6.60898 7.72695 6.69102 7.80898L8.87852 9.99648C9.04805 10.166 9.32695 10.166 9.49648 9.99648C9.66602 9.82695 9.66602 9.54805 9.49648 9.37852L7.4375 7.31953V4.4375C7.4375 4.19688 7.24062 4 7 4Z" fill="white"/>
</g>
<defs>
<clipPath id="clip0_1_2669">
<rect width="14" height="14" fill="white" transform="translate(0 0.5)"/>
</clipPath>
</defs>
</svg>
