<svg width="47" height="46" viewBox="0 0 47 46" fill="none" xmlns="http://www.w3.org/2000/svg">
<rect x="3.22998" y="3" width="40" height="40" rx="20" fill="#F2F4F7"/>
<rect x="3.22998" y="3" width="40" height="40" rx="20" stroke="#F9FAFB" stroke-width="6"/>
<g clip-path="url(#clip0_33_35270)">
<path d="M26.5635 26.3332L23.2302 22.9999M23.2302 22.9999L19.8969 26.3332M23.2302 22.9999V30.4999M30.2219 28.3249C31.0346 27.8818 31.6767 27.1806 32.0468 26.3321C32.4168 25.4835 32.4937 24.5359 32.2654 23.6388C32.037 22.7417 31.5164 21.9462 30.7858 21.3778C30.0551 20.8094 29.1559 20.5005 28.2302 20.4999H27.1802C26.928 19.5243 26.4578 18.6185 25.8051 17.8507C25.1525 17.0829 24.3342 16.4731 23.4119 16.0671C22.4897 15.661 21.4873 15.4694 20.4803 15.5065C19.4733 15.5436 18.4877 15.8085 17.5978 16.2813C16.7079 16.7541 15.9368 17.4225 15.3424 18.2362C14.748 19.05 14.3458 19.9879 14.166 20.9794C13.9862 21.9709 14.0336 22.9903 14.3045 23.961C14.5755 24.9316 15.0629 25.8281 15.7302 26.5832" stroke="#475467" stroke-width="1.66667" stroke-linecap="round" stroke-linejoin="round"/>
</g>
<defs>
<clipPath id="clip0_33_35270">
<rect width="20" height="20" fill="white" transform="translate(13.23 13)"/>
</clipPath>
</defs>
</svg>
