<svg width="15" height="18" viewBox="0 0 15 18" fill="none" xmlns="http://www.w3.org/2000/svg">
<g clip-path="url(#clip0_1_2673)">
<path d="M5.35714 13.25C4.76451 13.25 4.28571 12.7752 4.28571 12.1875V2.625C4.28571 2.0373 4.76451 1.5625 5.35714 1.5625H10.1786V4.21875C10.1786 4.80645 10.6574 5.28125 11.25 5.28125H13.9286C13.9286 5.29121 13.9286 5.29785 13.9286 5.30781V12.1875C13.9286 12.7752 13.4498 13.25 12.8571 13.25H5.35714ZM11.25 2.40918L13.058 4.21875H11.25V2.40918ZM5.35714 0.5C4.17522 0.5 3.21429 1.45293 3.21429 2.625V12.1875C3.21429 13.3596 4.17522 14.3125 5.35714 14.3125H12.8571C14.0391 14.3125 15 13.3596 15 12.1875V5.30781C15 4.88613 14.8326 4.48438 14.5346 4.18555L11.3203 0.971484C11.019 0.669336 10.6071 0.5 10.1786 0.5H5.35714ZM1.07143 4.21875C1.07143 3.92656 0.830357 3.6875 0.535714 3.6875C0.241071 3.6875 0 3.92656 0 4.21875V13.25C0 15.5975 1.91853 17.5 4.28571 17.5H11.25C11.5446 17.5 11.7857 17.2609 11.7857 16.9688C11.7857 16.6766 11.5446 16.4375 11.25 16.4375H4.28571C2.51116 16.4375 1.07143 15.0098 1.07143 13.25V4.21875Z" fill="white" fill-opacity="0.6"/>
</g>
<defs>
<clipPath id="clip0_1_2673">
<rect width="15" height="17" fill="white" transform="translate(0 0.5)"/>
</clipPath>
</defs>
</svg>
