<svg width="257" height="76" viewBox="0 0 257 76" fill="none" xmlns="http://www.w3.org/2000/svg">
<path d="M196.116 16.6289C196.116 16.6289 191.345 12.2125 184.911 10.0848L184.207 20.1856L195.309 19.8805C195.308 19.8798 198.577 18.6187 196.116 16.6289ZM196.116 16.6289C196.116 16.6289 191.345 12.2125 184.911 10.0848L184.207 20.1856L195.309 19.8805C195.308 19.8798 198.577 18.6187 196.116 16.6289ZM196.116 16.6289C196.116 16.6289 191.345 12.2125 184.911 10.0848L184.207 20.1856L195.309 19.8805C195.308 19.8798 198.577 18.6187 196.116 16.6289ZM196.116 16.6289C196.116 16.6289 191.345 12.2125 184.911 10.0848L184.207 20.1856L195.309 19.8805C195.308 19.8798 198.577 18.6187 196.116 16.6289ZM196.116 16.6289C196.116 16.6289 191.345 12.2125 184.911 10.0848L184.207 20.1856L195.309 19.8805C195.308 19.8798 198.577 18.6187 196.116 16.6289ZM196.116 16.6289C196.116 16.6289 191.345 12.2125 184.911 10.0848L184.207 20.1856L195.309 19.8805C195.308 19.8798 198.577 18.6187 196.116 16.6289ZM196.116 16.6289C196.116 16.6289 191.345 12.2125 184.911 10.0848L184.207 20.1856L195.309 19.8805C195.308 19.8798 198.577 18.6187 196.116 16.6289ZM196.116 16.6289C196.116 16.6289 191.345 12.2125 184.911 10.0848L184.207 20.1856L195.309 19.8805C195.308 19.8798 198.577 18.6187 196.116 16.6289ZM196.116 16.6289C196.116 16.6289 191.345 12.2125 184.911 10.0848L184.207 20.1856L195.309 19.8805C195.308 19.8798 198.577 18.6187 196.116 16.6289ZM196.116 16.6289C196.116 16.6289 191.345 12.2125 184.911 10.0848L184.207 20.1856L195.309 19.8805C195.308 19.8798 198.577 18.6187 196.116 16.6289ZM196.116 16.6289C196.116 16.6289 191.345 12.2125 184.911 10.0848L184.207 20.1856L195.309 19.8805C195.308 19.8798 198.577 18.6187 196.116 16.6289ZM196.116 16.6289C196.116 16.6289 191.345 12.2125 184.911 10.0848L184.207 20.1856L195.309 19.8805C195.308 19.8798 198.577 18.6187 196.116 16.6289ZM196.116 16.6289C196.116 16.6289 191.345 12.2125 184.911 10.0848L184.207 20.1856L195.309 19.8805C195.308 19.8798 198.577 18.6187 196.116 16.6289ZM196.116 16.6289C196.116 16.6289 191.345 12.2125 184.911 10.0848L184.207 20.1856L195.309 19.8805C195.308 19.8798 198.577 18.6187 196.116 16.6289ZM196.116 16.6289C196.116 16.6289 191.345 12.2125 184.911 10.0848L184.207 20.1856L195.309 19.8805C195.308 19.8798 198.577 18.6187 196.116 16.6289ZM196.116 16.6289C196.116 16.6289 191.345 12.2125 184.911 10.0848L184.207 20.1856L195.309 19.8805C195.308 19.8798 198.577 18.6187 196.116 16.6289ZM196.116 16.6289C196.116 16.6289 191.345 12.2125 184.911 10.0848L184.207 20.1856L195.309 19.8805C195.308 19.8798 198.577 18.6187 196.116 16.6289ZM196.116 16.6289C196.116 16.6289 191.345 12.2125 184.911 10.0848L184.207 20.1856L195.309 19.8805C195.308 19.8798 198.577 18.6187 196.116 16.6289ZM256.603 47.5221L256.998 38.932C256.998 38.932 254.51 37.4275 253.866 35.9854C253.308 34.7374 253.394 30.9312 253.017 29.6C250.16 30.1346 245.767 29.9328 245.767 29.9328L242.12 25.3847C244.198 24.8724 251.121 20.9891 251.558 20.7465C251.568 20.7395 251.576 20.7326 251.576 20.7326L250.65 18.7983L234.923 16.1637C234.923 16.1637 203.315 3.62867 184.302 1.66661C165.281 -0.302389 116.376 -1.74446 101.576 5.36196C86.7759 12.4684 60.1786 22.1747 60.1786 22.1747C60.1786 22.1747 16.8508 25.9879 5.4826 34.6543C5.4826 34.6543 1.12406 38.7586 1.98204 41.1852C1.98204 41.1852 0.223192 42.5372 0.223192 43.1896C0.223192 43.8406 -0.454606 50.8298 0.549228 51.0032C1.55306 51.1765 6.1947 51.4677 6.9154 52.6186C7.62753 53.7764 15.0662 58.8029 12.0633 59.0941C9.06035 59.3783 0.549228 57.7075 0.549228 57.7075C0.549228 57.7075 1.98204 58.9832 2.97729 59.1287C3.98113 59.2674 12.9899 61.0007 22.4963 61.4028C22.4963 61.4028 20.4286 41.6435 41.3031 39.6814C62.1777 37.7194 66.8966 58.2829 65.4724 61.4028L181.797 60.4807C181.797 60.4807 182.44 41.0681 202.929 38.9881C223.409 36.9082 226.841 54.0676 226.3 57.9709C226.3 57.9709 248.076 56.0574 252.897 53.7209L256.87 50.0811C256.868 50.0811 257.297 48.3062 256.603 47.5221ZM193.447 4.14936L233.558 16.9201L230.915 17.6134L192.238 5.13385L193.447 4.14936ZM49.8812 28.8519C58.2636 28.2841 60.5201 24.1166 60.7947 23.5419C60.5802 24.2206 58.5468 29.6631 49.9841 29.7117C41.8419 29.7595 28.569 31.5482 25.8321 31.9233C28.5699 31.4727 41.8342 29.3927 49.8812 28.8519ZM10.4142 40.2569L16.4201 35.3483C14.7642 34.3083 7.62581 34.655 7.62581 34.655C14.5583 33.0395 20.4268 34.2528 20.4268 34.2528C20.4268 34.2528 11.4181 42.9192 9.19592 41.588C7.05956 40.3054 4.04804 41.0126 3.84213 41.0611C5.00126 39.7369 10.4142 40.2569 10.4142 40.2569ZM42.1594 36.2149C24.3564 36.2981 19.2085 50.7744 19.2085 50.7744C19.2085 50.7744 0.00697923 51.5232 1.27679 49.7344L17.8529 50.3723C17.8529 50.3723 22.709 34.5371 41.9449 35.0016C61.1807 35.4661 64.7928 46.2679 64.7928 46.2679C64.7928 46.2679 59.9624 36.1317 42.1594 36.2149ZM65.2399 34.5995H64.5526C63.9958 34.5995 63.5402 34.2327 63.5402 33.7744C63.5402 33.3169 63.9949 32.9494 64.5526 32.9494H65.2399C65.7967 32.9494 66.2523 33.3169 66.2523 33.7744C66.2523 34.2327 65.7967 34.5995 65.2399 34.5995ZM71.4078 27.1596C71.0655 27.7635 67.2724 34.9177 70.6099 51.7929C70.362 51.225 64.2695 36.8104 71.4078 27.1596ZM169.286 50.7744C169.286 50.7744 179.007 52.3828 177.008 53.7695C175 55.163 70.6185 55.8563 70.6185 55.8563C70.6185 55.8563 73.3297 53.3188 77.9113 53.201C82.4852 53.0831 169.286 50.7744 169.286 50.7744ZM119.232 31.2439C119.232 30.8348 119.653 30.4951 120.168 30.4951H130.815C131.33 30.4951 131.75 30.8348 131.75 31.2439C131.75 31.6598 131.33 31.9996 130.815 31.9996H120.168C119.653 31.9996 119.232 31.6592 119.232 31.2439ZM133.748 49.7067C133.748 49.7067 129.999 35.3483 134.924 26.5918C134.925 26.5918 133.209 41.9832 133.748 49.7067ZM178.682 29.8773C178.682 29.4059 179.162 29.0183 179.745 29.0183H190.066C190.65 29.0183 191.121 29.4066 191.121 29.8773C191.121 30.3495 190.649 30.7301 190.066 30.7301H179.745C179.161 30.7308 178.682 30.3495 178.682 29.8773ZM198.595 23.3817C198.518 23.5065 198.432 23.6452 198.338 23.7977C198.166 24.0688 197.977 24.3662 197.772 24.6997C197.557 25.0464 197.317 25.4339 197.051 25.843C196.845 26.1751 196.63 26.5217 196.407 26.8829C196.286 27.0632 196.175 27.2504 196.056 27.4376C195.875 27.7288 195.687 28.0269 195.489 28.3396C195.181 28.8381 194.854 29.3511 194.52 29.8919C194.383 30.1068 194.245 30.3287 194.107 30.5506C193.971 30.7662 193.841 30.9804 193.704 31.1953C192.22 33.5803 190.555 36.2426 188.908 38.9049C188.668 39.2932 188.427 39.6745 188.187 40.0628C188.127 40.1667 188.058 40.2708 187.998 40.3747C187.852 40.6035 187.715 40.8254 187.578 41.0542C187.345 41.4279 187.115 41.803 186.882 42.1767C186.65 42.5517 186.419 42.9254 186.196 43.2929C185.741 44.0278 185.295 44.7488 184.866 45.4491C184.608 45.8789 184.351 46.3012 184.094 46.7102C183.836 47.12 183.596 47.529 183.357 47.9166C183.116 48.3117 182.884 48.7 182.653 49.0675C182.096 49.9965 181.581 50.8493 181.126 51.605C180.964 51.8754 180.818 52.1388 180.672 52.3815C180.569 52.5472 180.475 52.7073 180.389 52.8661C180.311 52.9916 180.243 53.1157 180.174 53.2336C180.106 53.3514 180.037 53.4623 179.977 53.5733C179.857 53.7882 179.745 53.9893 179.643 54.1626C179.497 54.426 179.376 54.6479 179.291 54.8143C177.438 58.5166 171.569 58.6275 171.569 58.6275H68.3286C68.3286 58.6275 168.566 56.7833 171.861 56.7833C175.147 56.7833 177.275 55.1609 177.275 55.1609L198.871 22.9422C198.792 23.0698 198.698 23.2153 198.595 23.3817ZM200.027 22.0021L135.782 23.8185L71.4336 25.5865C95.9975 6.17381 117.335 3.01927 151.449 3.1094C185.545 3.19953 196.381 13.4189 200.027 15.8455C203.674 18.2721 200.027 22.0021 200.027 22.0021ZM225.441 47.4812C220.293 36.0416 202.07 35.4384 202.07 35.4384C220.517 34.3984 226.728 43.8413 226.728 43.8413C229.199 44.6178 230.057 43.8413 230.057 43.8413C232.099 41.1513 239.066 41.1512 246.033 41.3315C253.008 41.4979 254.939 39.9449 254.939 39.9449C254.613 42.2189 245.286 43.4114 239.066 43.4114C232.846 43.4114 230.589 47.4812 230.589 47.4812C227.586 48.2646 225.441 47.4812 225.441 47.4812ZM251.866 53.0276C251.866 53.0276 231.558 57.2429 228.057 56.723C228.057 56.723 228.589 55.0382 227.551 53.0138C227.551 53.0138 248.863 52.7988 254.938 50.7744L251.866 53.0276ZM255.367 49.6789C247.001 51.7589 230.983 51.2389 230.983 51.2389C241.21 51.1765 255.367 48.119 255.367 48.119C257.229 48.3478 255.367 49.6789 255.367 49.6789ZM184.91 10.0841L184.206 20.1849L195.308 19.8798C195.308 19.8798 198.577 18.6187 196.115 16.6282C196.116 16.6289 191.344 12.2125 184.91 10.0841ZM196.116 16.6289C196.116 16.6289 191.345 12.2125 184.911 10.0848L184.207 20.1856L195.309 19.8805C195.308 19.8798 198.577 18.6187 196.116 16.6289ZM196.116 16.6289C196.116 16.6289 191.345 12.2125 184.911 10.0848L184.207 20.1856L195.309 19.8805C195.308 19.8798 198.577 18.6187 196.116 16.6289ZM196.116 16.6289C196.116 16.6289 191.345 12.2125 184.911 10.0848L184.207 20.1856L195.309 19.8805C195.308 19.8798 198.577 18.6187 196.116 16.6289ZM196.116 16.6289C196.116 16.6289 191.345 12.2125 184.911 10.0848L184.207 20.1856L195.309 19.8805C195.308 19.8798 198.577 18.6187 196.116 16.6289ZM196.116 16.6289C196.116 16.6289 191.345 12.2125 184.911 10.0848L184.207 20.1856L195.309 19.8805C195.308 19.8798 198.577 18.6187 196.116 16.6289ZM196.116 16.6289C196.116 16.6289 191.345 12.2125 184.911 10.0848L184.207 20.1856L195.309 19.8805C195.308 19.8798 198.577 18.6187 196.116 16.6289ZM196.116 16.6289C196.116 16.6289 191.345 12.2125 184.911 10.0848L184.207 20.1856L195.309 19.8805C195.308 19.8798 198.577 18.6187 196.116 16.6289ZM196.116 16.6289C196.116 16.6289 191.345 12.2125 184.911 10.0848L184.207 20.1856L195.309 19.8805C195.308 19.8798 198.577 18.6187 196.116 16.6289ZM196.116 16.6289C196.116 16.6289 191.345 12.2125 184.911 10.0848L184.207 20.1856L195.309 19.8805C195.308 19.8798 198.577 18.6187 196.116 16.6289ZM196.116 16.6289C196.116 16.6289 191.345 12.2125 184.911 10.0848L184.207 20.1856L195.309 19.8805C195.308 19.8798 198.577 18.6187 196.116 16.6289ZM196.116 16.6289C196.116 16.6289 191.345 12.2125 184.911 10.0848L184.207 20.1856L195.309 19.8805C195.308 19.8798 198.577 18.6187 196.116 16.6289ZM196.116 16.6289C196.116 16.6289 191.345 12.2125 184.911 10.0848L184.207 20.1856L195.309 19.8805C195.308 19.8798 198.577 18.6187 196.116 16.6289ZM196.116 16.6289C196.116 16.6289 191.345 12.2125 184.911 10.0848L184.207 20.1856L195.309 19.8805C195.308 19.8798 198.577 18.6187 196.116 16.6289ZM196.116 16.6289C196.116 16.6289 191.345 12.2125 184.911 10.0848L184.207 20.1856L195.309 19.8805C195.308 19.8798 198.577 18.6187 196.116 16.6289ZM196.116 16.6289C196.116 16.6289 191.345 12.2125 184.911 10.0848L184.207 20.1856L195.309 19.8805C195.308 19.8798 198.577 18.6187 196.116 16.6289ZM196.116 16.6289C196.116 16.6289 191.345 12.2125 184.911 10.0848L184.207 20.1856L195.309 19.8805C195.308 19.8798 198.577 18.6187 196.116 16.6289Z" fill="white" fill-opacity="0.5"/>
<path d="M254.64 30.2293L254.198 28.1597C254.38 28.9625 254.544 29.7287 254.64 30.2293Z" fill="white" fill-opacity="0.5"/>
<path d="M253.534 22.1018C253.534 22.1018 253.525 22.109 253.515 22.1161C253.247 22.3095 253.144 22.7256 253.135 23.1904C253.135 23.1904 247.575 27.0797 246.546 27.3948L248.44 30.4878H254.69C254.734 30.6955 254.76 30.8173 254.76 30.8173C254.855 30.8817 254.924 31.0393 254.984 31.2613C255.088 31.2469 255.192 31.2254 255.296 31.204L253.534 22.1018ZM254.39 29.0333C254.449 29.3134 254.511 29.5776 254.554 29.8068L254.39 29.0333Z" fill="white" fill-opacity="0.5"/>
<path d="M1.30964 54.6089C1.30964 54.6089 0.985389 57.5186 2.87725 59.5775C2.87725 59.5775 9.03534 60.9925 10.7136 60.6073C10.7136 60.6073 7.18065 56.9814 6.00212 56.1758C4.82274 55.3701 3.95808 54.5193 1.30964 54.6089Z" fill="white" fill-opacity="0.5"/>
<path d="M197.642 17.8623C197.642 17.8623 192.834 13.3005 186.35 11.1027L185.641 21.5361L196.829 21.221C196.828 21.2203 200.123 19.9177 197.642 17.8623ZM197.642 17.8623C197.642 17.8623 192.834 13.3005 186.35 11.1027L185.641 21.5361L196.829 21.221C196.828 21.2203 200.123 19.9177 197.642 17.8623ZM197.642 17.8623C197.642 17.8623 192.834 13.3005 186.35 11.1027L185.641 21.5361L196.829 21.221C196.828 21.2203 200.123 19.9177 197.642 17.8623Z" fill="#132140"/>
<path d="M199.855 17.6832C197.062 13.8518 180.331 3.71841 141.344 4.97166C102.365 6.22491 89.4645 17.0888 76.3564 25.439L198.411 22.1017C198.411 22.1017 202.657 21.5138 199.855 17.6832ZM131.694 22.5744L86.7322 23.8921C86.7322 23.8921 93.2172 15.2125 108.202 10.7581C123.186 6.30296 136.588 6.10315 136.588 6.10315L131.694 22.5744ZM184.006 21.5002L142.935 22.2163L145.053 6.10315C161.309 4.55629 184.723 10.5218 184.723 10.5218L184.006 21.5002ZM196.829 21.2202L185.64 21.5353L186.349 11.1018C192.834 13.2997 197.641 17.8615 197.641 17.8615C200.123 19.9175 196.829 21.2202 196.829 21.2202Z" fill="white" fill-opacity="0.5"/>
<path d="M45.1364 61.4122L45.1451 61.4416L45.152 61.4359C45.152 61.4309 45.1451 61.4187 45.1364 61.4122ZM45.1364 61.4122L45.1451 61.4416L45.152 61.4359C45.152 61.4309 45.1451 61.4187 45.1364 61.4122ZM45.1364 61.4122L45.1451 61.4416L45.152 61.4359C45.152 61.4309 45.1451 61.4187 45.1364 61.4122ZM45.1364 61.4122L45.1451 61.4416L45.152 61.4359C45.152 61.4309 45.1451 61.4187 45.1364 61.4122ZM45.1364 61.4122L45.1451 61.4416L45.152 61.4359C45.152 61.4309 45.1451 61.4187 45.1364 61.4122ZM45.1364 61.4122L45.1451 61.4416L45.152 61.4359C45.152 61.4309 45.1451 61.4187 45.1364 61.4122ZM45.1364 61.4122L45.1451 61.4416L45.152 61.4359C45.152 61.4309 45.1451 61.4187 45.1364 61.4122ZM45.1364 61.4122L45.1451 61.4416L45.152 61.4359C45.152 61.4309 45.1451 61.4187 45.1364 61.4122ZM45.1364 61.4122L45.1451 61.4416L45.152 61.4359C45.152 61.4309 45.1451 61.4187 45.1364 61.4122ZM45.1364 61.4122L45.1451 61.4416L45.152 61.4359C45.152 61.4309 45.1451 61.4187 45.1364 61.4122ZM54.9546 51.6441C54.9546 52.6409 54.0346 55.2033 46.1507 58.8205C46.334 59.0547 46.4395 59.3304 46.4619 59.624C55.2416 59.0125 57.859 60.6811 58.6199 61.5626C58.7193 60.9747 58.7789 60.381 58.7789 59.7687C58.7798 56.6363 57.3306 53.7796 54.9546 51.6441ZM42.239 59.1027C33.4221 55.8263 32.7918 53.2045 32.8428 52.4053C30.9163 54.4399 29.7776 56.9894 29.7776 59.7687C29.7776 60.8128 29.9367 61.8197 30.241 62.7808C30.9008 61.8441 33.3279 59.9957 42.0946 59.9656C42.0868 59.899 42.0799 59.8331 42.0799 59.7687C42.0799 59.5345 42.13 59.3061 42.239 59.1027ZM43.6025 61.4917C43.2679 61.4072 42.9713 61.2568 42.724 61.0534C36.2115 66.0757 32.9085 66.0392 31.6902 65.727C33.8276 68.8178 37.5742 71.0436 41.9787 71.6258C41.2325 70.7973 40.1379 68.2772 43.6025 61.4917ZM45.1364 61.4122L45.1451 61.4416L45.152 61.4359C45.152 61.4309 45.1451 61.4187 45.1364 61.4122ZM44.2822 47.7612C41.9493 47.7612 39.747 48.218 37.799 49.028C39.0441 49.3818 41.7176 50.9659 43.5939 58.0464C43.8109 57.9812 44.0452 57.9518 44.2822 57.9518C44.4067 57.9518 44.5294 57.9568 44.6444 57.974C46.6738 50.0836 49.6664 49.0753 50.5846 48.9557C48.6807 48.188 46.5441 47.7612 44.2822 47.7612ZM45.9553 60.9389C45.7391 61.1551 45.465 61.3285 45.152 61.4359C49.3248 67.5875 48.7879 70.2995 48.1584 71.3372C52.3952 70.3654 55.8581 67.8382 57.5823 64.5453C56.6061 64.9772 53.4544 65.5415 45.9553 60.9389ZM54.9546 51.6441C54.9546 52.6409 54.0346 55.2033 46.1507 58.8205C46.334 59.0547 46.4395 59.3304 46.4619 59.624C55.2416 59.0125 57.859 60.6811 58.6199 61.5626C58.7193 60.9747 58.7789 60.381 58.7789 59.7687C58.7798 56.6363 57.3306 53.7796 54.9546 51.6441ZM45.9553 60.9389C45.7391 61.1551 45.465 61.3285 45.152 61.4359C49.3248 67.5875 48.7879 70.2995 48.1584 71.3372C52.3952 70.3654 55.8581 67.8382 57.5823 64.5453C56.6061 64.9772 53.4544 65.5415 45.9553 60.9389ZM44.2822 47.7612C41.9493 47.7612 39.747 48.218 37.799 49.028C39.0441 49.3818 41.7176 50.9659 43.5939 58.0464C43.8109 57.9812 44.0452 57.9518 44.2822 57.9518C44.4067 57.9518 44.5294 57.9568 44.6444 57.974C46.6738 50.0836 49.6664 49.0753 50.5846 48.9557C48.6807 48.188 46.5441 47.7612 44.2822 47.7612ZM45.1364 61.4122L45.1451 61.4416L45.152 61.4359C45.152 61.4309 45.1451 61.4187 45.1364 61.4122ZM43.6025 61.4917C43.2679 61.4072 42.9713 61.2568 42.724 61.0534C36.2115 66.0757 32.9085 66.0392 31.6902 65.727C33.8276 68.8178 37.5742 71.0436 41.9787 71.6258C41.2325 70.7973 40.1379 68.2772 43.6025 61.4917ZM42.239 59.1027C33.4221 55.8263 32.7918 53.2045 32.8428 52.4053C30.9163 54.4399 29.7776 56.9894 29.7776 59.7687C29.7776 60.8128 29.9367 61.8197 30.241 62.7808C30.9008 61.8441 33.3279 59.9957 42.0946 59.9656C42.0868 59.899 42.0799 59.8331 42.0799 59.7687C42.0799 59.5345 42.13 59.3061 42.239 59.1027ZM54.9546 51.6441C54.9546 52.6409 54.0346 55.2033 46.1507 58.8205C46.334 59.0547 46.4395 59.3304 46.4619 59.624C55.2416 59.0125 57.859 60.6811 58.6199 61.5626C58.7193 60.9747 58.7789 60.381 58.7789 59.7687C58.7798 56.6363 57.3306 53.7796 54.9546 51.6441ZM42.239 59.1027C33.4221 55.8263 32.7918 53.2045 32.8428 52.4053C30.9163 54.4399 29.7776 56.9894 29.7776 59.7687C29.7776 60.8128 29.9367 61.8197 30.241 62.7808C30.9008 61.8441 33.3279 59.9957 42.0946 59.9656C42.0868 59.899 42.0799 59.8331 42.0799 59.7687C42.0799 59.5345 42.13 59.3061 42.239 59.1027ZM43.6025 61.4917C43.2679 61.4072 42.9713 61.2568 42.724 61.0534C36.2115 66.0757 32.9085 66.0392 31.6902 65.727C33.8276 68.8178 37.5742 71.0436 41.9787 71.6258C41.2325 70.7973 40.1379 68.2772 43.6025 61.4917ZM45.1364 61.4122L45.1451 61.4416L45.152 61.4359C45.152 61.4309 45.1451 61.4187 45.1364 61.4122ZM44.2822 47.7612C41.9493 47.7612 39.747 48.218 37.799 49.028C39.0441 49.3818 41.7176 50.9659 43.5939 58.0464C43.8109 57.9812 44.0452 57.9518 44.2822 57.9518C44.4067 57.9518 44.5294 57.9568 44.6444 57.974C46.6738 50.0836 49.6664 49.0753 50.5846 48.9557C48.6807 48.188 46.5441 47.7612 44.2822 47.7612ZM45.9553 60.9389C45.7391 61.1551 45.465 61.3285 45.152 61.4359C49.3248 67.5875 48.7879 70.2995 48.1584 71.3372C52.3952 70.3654 55.8581 67.8382 57.5823 64.5453C56.6061 64.9772 53.4544 65.5415 45.9553 60.9389ZM54.9546 51.6441C54.9546 52.6409 54.0346 55.2033 46.1507 58.8205C46.334 59.0547 46.4395 59.3304 46.4619 59.624C55.2416 59.0125 57.859 60.6811 58.6199 61.5626C58.7193 60.9747 58.7789 60.381 58.7789 59.7687C58.7798 56.6363 57.3306 53.7796 54.9546 51.6441ZM45.9553 60.9389C45.7391 61.1551 45.465 61.3285 45.152 61.4359C49.3248 67.5875 48.7879 70.2995 48.1584 71.3372C52.3952 70.3654 55.8581 67.8382 57.5823 64.5453C56.6061 64.9772 53.4544 65.5415 45.9553 60.9389ZM44.2822 47.7612C41.9493 47.7612 39.747 48.218 37.799 49.028C39.0441 49.3818 41.7176 50.9659 43.5939 58.0464C43.8109 57.9812 44.0452 57.9518 44.2822 57.9518C44.4067 57.9518 44.5294 57.9568 44.6444 57.974C46.6738 50.0836 49.6664 49.0753 50.5846 48.9557C48.6807 48.188 46.5441 47.7612 44.2822 47.7612ZM45.1364 61.4122L45.1451 61.4416L45.152 61.4359C45.152 61.4309 45.1451 61.4187 45.1364 61.4122ZM43.6025 61.4917C43.2679 61.4072 42.9713 61.2568 42.724 61.0534C36.2115 66.0757 32.9085 66.0392 31.6902 65.727C33.8276 68.8178 37.5742 71.0436 41.9787 71.6258C41.2325 70.7973 40.1379 68.2772 43.6025 61.4917ZM42.239 59.1027C33.4221 55.8263 32.7918 53.2045 32.8428 52.4053C30.9163 54.4399 29.7776 56.9894 29.7776 59.7687C29.7776 60.8128 29.9367 61.8197 30.241 62.7808C30.9008 61.8441 33.3279 59.9957 42.0946 59.9656C42.0868 59.899 42.0799 59.8331 42.0799 59.7687C42.0799 59.5345 42.13 59.3061 42.239 59.1027ZM54.9546 51.6441C54.9546 52.6409 54.0346 55.2033 46.1507 58.8205C46.334 59.0547 46.4395 59.3304 46.4619 59.624C55.2416 59.0125 57.859 60.6811 58.6199 61.5626C58.7193 60.9747 58.7789 60.381 58.7789 59.7687C58.7798 56.6363 57.3306 53.7796 54.9546 51.6441ZM42.239 59.1027C33.4221 55.8263 32.7918 53.2045 32.8428 52.4053C30.9163 54.4399 29.7776 56.9894 29.7776 59.7687C29.7776 60.8128 29.9367 61.8197 30.241 62.7808C30.9008 61.8441 33.3279 59.9957 42.0946 59.9656C42.0868 59.899 42.0799 59.8331 42.0799 59.7687C42.0799 59.5345 42.13 59.3061 42.239 59.1027ZM43.6025 61.4917C43.2679 61.4072 42.9713 61.2568 42.724 61.0534C36.2115 66.0757 32.9085 66.0392 31.6902 65.727C33.8276 68.8178 37.5742 71.0436 41.9787 71.6258C41.2325 70.7973 40.1379 68.2772 43.6025 61.4917ZM45.1364 61.4122L45.1451 61.4416L45.152 61.4359C45.152 61.4309 45.1451 61.4187 45.1364 61.4122ZM44.2822 47.7612C41.9493 47.7612 39.747 48.218 37.799 49.028C39.0441 49.3818 41.7176 50.9659 43.5939 58.0464C43.8109 57.9812 44.0452 57.9518 44.2822 57.9518C44.4067 57.9518 44.5294 57.9568 44.6444 57.974C46.6738 50.0836 49.6664 49.0753 50.5846 48.9557C48.6807 48.188 46.5441 47.7612 44.2822 47.7612ZM45.9553 60.9389C45.7391 61.1551 45.465 61.3285 45.152 61.4359C49.3248 67.5875 48.7879 70.2995 48.1584 71.3372C52.3952 70.3654 55.8581 67.8382 57.5823 64.5453C56.6061 64.9772 53.4544 65.5415 45.9553 60.9389ZM54.9546 51.6441C54.9546 52.6409 54.0346 55.2033 46.1507 58.8205C46.334 59.0547 46.4395 59.3304 46.4619 59.624C55.2416 59.0125 57.859 60.6811 58.6199 61.5626C58.7193 60.9747 58.7789 60.381 58.7789 59.7687C58.7798 56.6363 57.3306 53.7796 54.9546 51.6441ZM45.9553 60.9389C45.7391 61.1551 45.465 61.3285 45.152 61.4359C49.3248 67.5875 48.7879 70.2995 48.1584 71.3372C52.3952 70.3654 55.8581 67.8382 57.5823 64.5453C56.6061 64.9772 53.4544 65.5415 45.9553 60.9389ZM44.2822 47.7612C41.9493 47.7612 39.747 48.218 37.799 49.028C39.0441 49.3818 41.7176 50.9659 43.5939 58.0464C43.8109 57.9812 44.0452 57.9518 44.2822 57.9518C44.4067 57.9518 44.5294 57.9568 44.6444 57.974C46.6738 50.0836 49.6664 49.0753 50.5846 48.9557C48.6807 48.188 46.5441 47.7612 44.2822 47.7612ZM45.1364 61.4122L45.1451 61.4416L45.152 61.4359C45.152 61.4309 45.1451 61.4187 45.1364 61.4122ZM43.6025 61.4917C43.2679 61.4072 42.9713 61.2568 42.724 61.0534C36.2115 66.0757 32.9085 66.0392 31.6902 65.727C33.8276 68.8178 37.5742 71.0436 41.9787 71.6258C41.2325 70.7973 40.1379 68.2772 43.6025 61.4917ZM42.239 59.1027C33.4221 55.8263 32.7918 53.2045 32.8428 52.4053C30.9163 54.4399 29.7776 56.9894 29.7776 59.7687C29.7776 60.8128 29.9367 61.8197 30.241 62.7808C30.9008 61.8441 33.3279 59.9957 42.0946 59.9656C42.0868 59.899 42.0799 59.8331 42.0799 59.7687C42.0799 59.5345 42.13 59.3061 42.239 59.1027ZM54.9546 51.6441C54.9546 52.6409 54.0346 55.2033 46.1507 58.8205C46.334 59.0547 46.4395 59.3304 46.4619 59.624C55.2416 59.0125 57.859 60.6811 58.6199 61.5626C58.7193 60.9747 58.7789 60.381 58.7789 59.7687C58.7798 56.6363 57.3306 53.7796 54.9546 51.6441ZM42.239 59.1027C33.4221 55.8263 32.7918 53.2045 32.8428 52.4053C30.9163 54.4399 29.7776 56.9894 29.7776 59.7687C29.7776 60.8128 29.9367 61.8197 30.241 62.7808C30.9008 61.8441 33.3279 59.9957 42.0946 59.9656C42.0868 59.899 42.0799 59.8331 42.0799 59.7687C42.0799 59.5345 42.13 59.3061 42.239 59.1027ZM43.6025 61.4917C43.2679 61.4072 42.9713 61.2568 42.724 61.0534C36.2115 66.0757 32.9085 66.0392 31.6902 65.727C33.8276 68.8178 37.5742 71.0436 41.9787 71.6258C41.2325 70.7973 40.1379 68.2772 43.6025 61.4917ZM45.1364 61.4122L45.1451 61.4416L45.152 61.4359C45.152 61.4309 45.1451 61.4187 45.1364 61.4122ZM44.2822 47.7612C41.9493 47.7612 39.747 48.218 37.799 49.028C39.0441 49.3818 41.7176 50.9659 43.5939 58.0464C43.8109 57.9812 44.0452 57.9518 44.2822 57.9518C44.4067 57.9518 44.5294 57.9568 44.6444 57.974C46.6738 50.0836 49.6664 49.0753 50.5846 48.9557C48.6807 48.188 46.5441 47.7612 44.2822 47.7612ZM45.9553 60.9389C45.7391 61.1551 45.465 61.3285 45.152 61.4359C49.3248 67.5875 48.7879 70.2995 48.1584 71.3372C52.3952 70.3654 55.8581 67.8382 57.5823 64.5453C56.6061 64.9772 53.4544 65.5415 45.9553 60.9389ZM54.9546 51.6441C54.9546 52.6409 54.0346 55.2033 46.1507 58.8205C46.334 59.0547 46.4395 59.3304 46.4619 59.624C55.2416 59.0125 57.859 60.6811 58.6199 61.5626C58.7193 60.9747 58.7789 60.381 58.7789 59.7687C58.7798 56.6363 57.3306 53.7796 54.9546 51.6441ZM45.9553 60.9389C45.7391 61.1551 45.465 61.3285 45.152 61.4359C49.3248 67.5875 48.7879 70.2995 48.1584 71.3372C52.3952 70.3654 55.8581 67.8382 57.5823 64.5453C56.6061 64.9772 53.4544 65.5415 45.9553 60.9389ZM44.2822 47.7612C41.9493 47.7612 39.747 48.218 37.799 49.028C39.0441 49.3818 41.7176 50.9659 43.5939 58.0464C43.8109 57.9812 44.0452 57.9518 44.2822 57.9518C44.4067 57.9518 44.5294 57.9568 44.6444 57.974C46.6738 50.0836 49.6664 49.0753 50.5846 48.9557C48.6807 48.188 46.5441 47.7612 44.2822 47.7612ZM45.1364 61.4122L45.1451 61.4416L45.152 61.4359C45.152 61.4309 45.1451 61.4187 45.1364 61.4122ZM43.6025 61.4917C43.2679 61.4072 42.9713 61.2568 42.724 61.0534C36.2115 66.0757 32.9085 66.0392 31.6902 65.727C33.8276 68.8178 37.5742 71.0436 41.9787 71.6258C41.2325 70.7973 40.1379 68.2772 43.6025 61.4917ZM42.239 59.1027C33.4221 55.8263 32.7918 53.2045 32.8428 52.4053C30.9163 54.4399 29.7776 56.9894 29.7776 59.7687C29.7776 60.8128 29.9367 61.8197 30.241 62.7808C30.9008 61.8441 33.3279 59.9957 42.0946 59.9656C42.0868 59.899 42.0799 59.8331 42.0799 59.7687C42.0799 59.5345 42.13 59.3061 42.239 59.1027ZM54.9546 51.6441C54.9546 52.6409 54.0346 55.2033 46.1507 58.8205C46.334 59.0547 46.4395 59.3304 46.4619 59.624C55.2416 59.0125 57.859 60.6811 58.6199 61.5626C58.7193 60.9747 58.7789 60.381 58.7789 59.7687C58.7798 56.6363 57.3306 53.7796 54.9546 51.6441ZM42.239 59.1027C33.4221 55.8263 32.7918 53.2045 32.8428 52.4053C30.9163 54.4399 29.7776 56.9894 29.7776 59.7687C29.7776 60.8128 29.9367 61.8197 30.241 62.7808C30.9008 61.8441 33.3279 59.9957 42.0946 59.9656C42.0868 59.899 42.0799 59.8331 42.0799 59.7687C42.0799 59.5345 42.13 59.3061 42.239 59.1027ZM43.6025 61.4917C43.2679 61.4072 42.9713 61.2568 42.724 61.0534C36.2115 66.0757 32.9085 66.0392 31.6902 65.727C33.8276 68.8178 37.5742 71.0436 41.9787 71.6258C41.2325 70.7973 40.1379 68.2772 43.6025 61.4917ZM45.1364 61.4122L45.1451 61.4416L45.152 61.4359C45.152 61.4309 45.1451 61.4187 45.1364 61.4122ZM44.2822 47.7612C41.9493 47.7612 39.747 48.218 37.799 49.028C39.0441 49.3818 41.7176 50.9659 43.5939 58.0464C43.8109 57.9812 44.0452 57.9518 44.2822 57.9518C44.4067 57.9518 44.5294 57.9568 44.6444 57.974C46.6738 50.0836 49.6664 49.0753 50.5846 48.9557C48.6807 48.188 46.5441 47.7612 44.2822 47.7612ZM45.9553 60.9389C45.7391 61.1551 45.465 61.3285 45.152 61.4359C49.3248 67.5875 48.7879 70.2995 48.1584 71.3372C52.3952 70.3654 55.8581 67.8382 57.5823 64.5453C56.6061 64.9772 53.4544 65.5415 45.9553 60.9389ZM54.9546 51.6441C54.9546 52.6409 54.0346 55.2033 46.1507 58.8205C46.334 59.0547 46.4395 59.3304 46.4619 59.624C55.2416 59.0125 57.859 60.6811 58.6199 61.5626C58.7193 60.9747 58.7789 60.381 58.7789 59.7687C58.7798 56.6363 57.3306 53.7796 54.9546 51.6441ZM45.9553 60.9389C45.7391 61.1551 45.465 61.3285 45.152 61.4359C49.3248 67.5875 48.7879 70.2995 48.1584 71.3372C52.3952 70.3654 55.8581 67.8382 57.5823 64.5453C56.6061 64.9772 53.4544 65.5415 45.9553 60.9389ZM44.2822 47.7612C41.9493 47.7612 39.747 48.218 37.799 49.028C39.0441 49.3818 41.7176 50.9659 43.5939 58.0464C43.8109 57.9812 44.0452 57.9518 44.2822 57.9518C44.4067 57.9518 44.5294 57.9568 44.6444 57.974C46.6738 50.0836 49.6664 49.0753 50.5846 48.9557C48.6807 48.188 46.5441 47.7612 44.2822 47.7612ZM45.1364 61.4122L45.1451 61.4416L45.152 61.4359C45.152 61.4309 45.1451 61.4187 45.1364 61.4122ZM43.6025 61.4917C43.2679 61.4072 42.9713 61.2568 42.724 61.0534C36.2115 66.0757 32.9085 66.0392 31.6902 65.727C33.8276 68.8178 37.5742 71.0436 41.9787 71.6258C41.2325 70.7973 40.1379 68.2772 43.6025 61.4917ZM42.239 59.1027C33.4221 55.8263 32.7918 53.2045 32.8428 52.4053C30.9163 54.4399 29.7776 56.9894 29.7776 59.7687C29.7776 60.8128 29.9367 61.8197 30.241 62.7808C30.9008 61.8441 33.3279 59.9957 42.0946 59.9656C42.0868 59.899 42.0799 59.8331 42.0799 59.7687C42.0799 59.5345 42.13 59.3061 42.239 59.1027ZM54.9546 51.6441C54.9546 52.6409 54.0346 55.2033 46.1507 58.8205C46.334 59.0547 46.4395 59.3304 46.4619 59.624C55.2416 59.0125 57.859 60.6811 58.6199 61.5626C58.7193 60.9747 58.7789 60.381 58.7789 59.7687C58.7798 56.6363 57.3306 53.7796 54.9546 51.6441ZM42.239 59.1027C33.4221 55.8263 32.7918 53.2045 32.8428 52.4053C30.9163 54.4399 29.7776 56.9894 29.7776 59.7687C29.7776 60.8128 29.9367 61.8197 30.241 62.7808C30.9008 61.8441 33.3279 59.9957 42.0946 59.9656C42.0868 59.899 42.0799 59.8331 42.0799 59.7687C42.0799 59.5345 42.13 59.3061 42.239 59.1027ZM43.6025 61.4917C43.2679 61.4072 42.9713 61.2568 42.724 61.0534C36.2115 66.0757 32.9085 66.0392 31.6902 65.727C33.8276 68.8178 37.5742 71.0436 41.9787 71.6258C41.2325 70.7973 40.1379 68.2772 43.6025 61.4917ZM45.1364 61.4122L45.1451 61.4416L45.152 61.4359C45.152 61.4309 45.1451 61.4187 45.1364 61.4122ZM44.2822 47.7612C41.9493 47.7612 39.747 48.218 37.799 49.028C39.0441 49.3818 41.7176 50.9659 43.5939 58.0464C43.8109 57.9812 44.0452 57.9518 44.2822 57.9518C44.4067 57.9518 44.5294 57.9568 44.6444 57.974C46.6738 50.0836 49.6664 49.0753 50.5846 48.9557C48.6807 48.188 46.5441 47.7612 44.2822 47.7612ZM45.9553 60.9389C45.7391 61.1551 45.465 61.3285 45.152 61.4359C49.3248 67.5875 48.7879 70.2995 48.1584 71.3372C52.3952 70.3654 55.8581 67.8382 57.5823 64.5453C56.6061 64.9772 53.4544 65.5415 45.9553 60.9389ZM54.9546 51.6441C54.9546 52.6409 54.0346 55.2033 46.1507 58.8205C46.334 59.0547 46.4395 59.3304 46.4619 59.624C55.2416 59.0125 57.859 60.6811 58.6199 61.5626C58.7193 60.9747 58.7789 60.381 58.7789 59.7687C58.7798 56.6363 57.3306 53.7796 54.9546 51.6441ZM45.9553 60.9389C45.7391 61.1551 45.465 61.3285 45.152 61.4359C49.3248 67.5875 48.7879 70.2995 48.1584 71.3372C52.3952 70.3654 55.8581 67.8382 57.5823 64.5453C56.6061 64.9772 53.4544 65.5415 45.9553 60.9389ZM50.5846 48.9557C48.6807 48.188 46.5441 47.7612 44.2822 47.7612C41.9493 47.7612 39.747 48.218 37.799 49.028C39.0441 49.3818 41.7176 50.9659 43.5939 58.0464C43.8109 57.9812 44.0452 57.9518 44.2822 57.9518C44.4067 57.9518 44.5294 57.9568 44.6444 57.974C46.6738 50.0836 49.6664 49.0753 50.5846 48.9557ZM45.1451 61.4416L45.152 61.4359C45.152 61.4301 45.1451 61.4187 45.1364 61.4122L45.1451 61.4416ZM42.724 61.0534C36.2115 66.0757 32.9085 66.0392 31.6902 65.727C33.8276 68.8178 37.5742 71.0436 41.9787 71.6258C41.2325 70.7973 40.1379 68.2772 43.6025 61.4917C43.2679 61.4072 42.9713 61.2568 42.724 61.0534ZM42.0799 59.7687C42.0799 59.5345 42.1309 59.3054 42.2398 59.102C33.423 55.8256 32.7926 53.2038 32.8436 52.4046C30.9172 54.4392 29.7784 56.9886 29.7784 59.768C29.7784 60.8121 29.9375 61.819 30.2419 62.7801C30.9016 61.8433 33.3287 59.995 42.0954 59.9649C42.0876 59.8997 42.0799 59.8339 42.0799 59.7687ZM54.9546 51.6441C54.9546 52.6409 54.0346 55.2033 46.1507 58.8205C46.334 59.0547 46.4395 59.3304 46.4619 59.624C55.2416 59.0125 57.859 60.6811 58.6199 61.5626C58.7193 60.9747 58.7789 60.381 58.7789 59.7687C58.7798 56.6363 57.3306 53.7796 54.9546 51.6441ZM44.2822 44.0164C33.7783 44.0164 25.2658 51.0676 25.2658 59.7687C25.2658 68.4684 33.7783 75.5195 44.2822 75.5195C54.7808 75.5195 63.3011 68.4684 63.3011 59.7687C63.3011 51.0676 54.7799 44.0164 44.2822 44.0164ZM44.2822 72.5024C35.7904 72.5024 28.9017 66.8012 28.9017 59.7694C28.9017 52.7369 35.7904 47.03 44.2822 47.03C52.7731 47.03 59.6557 52.7369 59.6557 59.7694C59.6557 66.8012 52.7731 72.5024 44.2822 72.5024ZM45.9553 60.9389C45.7391 61.1551 45.465 61.3285 45.152 61.4359C49.3248 67.5875 48.7879 70.2995 48.1584 71.3372C52.3952 70.3654 55.8581 67.8382 57.5823 64.5453C56.6061 64.9772 53.4544 65.5415 45.9553 60.9389ZM50.5846 48.9557C48.6807 48.188 46.5441 47.7612 44.2822 47.7612C41.9493 47.7612 39.747 48.218 37.799 49.028C39.0441 49.3818 41.7176 50.9659 43.5939 58.0464C43.8109 57.9812 44.0452 57.9518 44.2822 57.9518C44.4067 57.9518 44.5294 57.9568 44.6444 57.974C46.6738 50.0836 49.6664 49.0753 50.5846 48.9557ZM45.1451 61.4416L45.152 61.4359C45.152 61.4301 45.1451 61.4187 45.1364 61.4122L45.1451 61.4416ZM42.724 61.0534C36.2115 66.0757 32.9085 66.0392 31.6902 65.727C33.8276 68.8178 37.5742 71.0436 41.9787 71.6258C41.2325 70.7973 40.1379 68.2772 43.6025 61.4917C43.2679 61.4072 42.9713 61.2568 42.724 61.0534ZM42.0799 59.7687C42.0799 59.5345 42.1309 59.3054 42.2398 59.102C33.423 55.8256 32.7926 53.2038 32.8436 52.4046C30.9172 54.4392 29.7784 56.9886 29.7784 59.768C29.7784 60.8121 29.9375 61.819 30.2419 62.7801C30.9016 61.8433 33.3287 59.995 42.0954 59.9649C42.0876 59.8997 42.0799 59.8339 42.0799 59.7687ZM54.9546 51.6441C54.9546 52.6409 54.0346 55.2033 46.1507 58.8205C46.334 59.0547 46.4395 59.3304 46.4619 59.624C55.2416 59.0125 57.859 60.6811 58.6199 61.5626C58.7193 60.9747 58.7789 60.381 58.7789 59.7687C58.7798 56.6363 57.3306 53.7796 54.9546 51.6441ZM42.239 59.1027C33.4221 55.8263 32.7918 53.2045 32.8428 52.4053C30.9163 54.4399 29.7776 56.9894 29.7776 59.7687C29.7776 60.8128 29.9367 61.8197 30.241 62.7808C30.9008 61.8441 33.3279 59.9957 42.0946 59.9656C42.0868 59.899 42.0799 59.8331 42.0799 59.7687C42.0799 59.5345 42.13 59.3061 42.239 59.1027ZM43.6025 61.4917C43.2679 61.4072 42.9713 61.2568 42.724 61.0534C36.2115 66.0757 32.9085 66.0392 31.6902 65.727C33.8276 68.8178 37.5742 71.0436 41.9787 71.6258C41.2325 70.7973 40.1379 68.2772 43.6025 61.4917ZM45.1364 61.4122L45.1451 61.4416L45.152 61.4359C45.152 61.4309 45.1451 61.4187 45.1364 61.4122ZM44.2822 47.7612C41.9493 47.7612 39.747 48.218 37.799 49.028C39.0441 49.3818 41.7176 50.9659 43.5939 58.0464C43.8109 57.9812 44.0452 57.9518 44.2822 57.9518C44.4067 57.9518 44.5294 57.9568 44.6444 57.974C46.6738 50.0836 49.6664 49.0753 50.5846 48.9557C48.6807 48.188 46.5441 47.7612 44.2822 47.7612ZM45.9553 60.9389C45.7391 61.1551 45.465 61.3285 45.152 61.4359C49.3248 67.5875 48.7879 70.2995 48.1584 71.3372C52.3952 70.3654 55.8581 67.8382 57.5823 64.5453C56.6061 64.9772 53.4544 65.5415 45.9553 60.9389ZM54.9546 51.6441C54.9546 52.6409 54.0346 55.2033 46.1507 58.8205C46.334 59.0547 46.4395 59.3304 46.4619 59.624C55.2416 59.0125 57.859 60.6811 58.6199 61.5626C58.7193 60.9747 58.7789 60.381 58.7789 59.7687C58.7798 56.6363 57.3306 53.7796 54.9546 51.6441ZM45.9553 60.9389C45.7391 61.1551 45.465 61.3285 45.152 61.4359C49.3248 67.5875 48.7879 70.2995 48.1584 71.3372C52.3952 70.3654 55.8581 67.8382 57.5823 64.5453C56.6061 64.9772 53.4544 65.5415 45.9553 60.9389ZM44.2822 47.7612C41.9493 47.7612 39.747 48.218 37.799 49.028C39.0441 49.3818 41.7176 50.9659 43.5939 58.0464C43.8109 57.9812 44.0452 57.9518 44.2822 57.9518C44.4067 57.9518 44.5294 57.9568 44.6444 57.974C46.6738 50.0836 49.6664 49.0753 50.5846 48.9557C48.6807 48.188 46.5441 47.7612 44.2822 47.7612ZM45.1364 61.4122L45.1451 61.4416L45.152 61.4359C45.152 61.4309 45.1451 61.4187 45.1364 61.4122ZM43.6025 61.4917C43.2679 61.4072 42.9713 61.2568 42.724 61.0534C36.2115 66.0757 32.9085 66.0392 31.6902 65.727C33.8276 68.8178 37.5742 71.0436 41.9787 71.6258C41.2325 70.7973 40.1379 68.2772 43.6025 61.4917ZM42.239 59.1027C33.4221 55.8263 32.7918 53.2045 32.8428 52.4053C30.9163 54.4399 29.7776 56.9894 29.7776 59.7687C29.7776 60.8128 29.9367 61.8197 30.241 62.7808C30.9008 61.8441 33.3279 59.9957 42.0946 59.9656C42.0868 59.899 42.0799 59.8331 42.0799 59.7687C42.0799 59.5345 42.13 59.3061 42.239 59.1027ZM54.9546 51.6441C54.9546 52.6409 54.0346 55.2033 46.1507 58.8205C46.334 59.0547 46.4395 59.3304 46.4619 59.624C55.2416 59.0125 57.859 60.6811 58.6199 61.5626C58.7193 60.9747 58.7789 60.381 58.7789 59.7687C58.7798 56.6363 57.3306 53.7796 54.9546 51.6441ZM42.239 59.1027C33.4221 55.8263 32.7918 53.2045 32.8428 52.4053C30.9163 54.4399 29.7776 56.9894 29.7776 59.7687C29.7776 60.8128 29.9367 61.8197 30.241 62.7808C30.9008 61.8441 33.3279 59.9957 42.0946 59.9656C42.0868 59.899 42.0799 59.8331 42.0799 59.7687C42.0799 59.5345 42.13 59.3061 42.239 59.1027ZM43.6025 61.4917C43.2679 61.4072 42.9713 61.2568 42.724 61.0534C36.2115 66.0757 32.9085 66.0392 31.6902 65.727C33.8276 68.8178 37.5742 71.0436 41.9787 71.6258C41.2325 70.7973 40.1379 68.2772 43.6025 61.4917ZM45.1364 61.4122L45.1451 61.4416L45.152 61.4359C45.152 61.4309 45.1451 61.4187 45.1364 61.4122ZM44.2822 47.7612C41.9493 47.7612 39.747 48.218 37.799 49.028C39.0441 49.3818 41.7176 50.9659 43.5939 58.0464C43.8109 57.9812 44.0452 57.9518 44.2822 57.9518C44.4067 57.9518 44.5294 57.9568 44.6444 57.974C46.6738 50.0836 49.6664 49.0753 50.5846 48.9557C48.6807 48.188 46.5441 47.7612 44.2822 47.7612ZM45.9553 60.9389C45.7391 61.1551 45.465 61.3285 45.152 61.4359C49.3248 67.5875 48.7879 70.2995 48.1584 71.3372C52.3952 70.3654 55.8581 67.8382 57.5823 64.5453C56.6061 64.9772 53.4544 65.5415 45.9553 60.9389ZM54.9546 51.6441C54.9546 52.6409 54.0346 55.2033 46.1507 58.8205C46.334 59.0547 46.4395 59.3304 46.4619 59.624C55.2416 59.0125 57.859 60.6811 58.6199 61.5626C58.7193 60.9747 58.7789 60.381 58.7789 59.7687C58.7798 56.6363 57.3306 53.7796 54.9546 51.6441ZM45.9553 60.9389C45.7391 61.1551 45.465 61.3285 45.152 61.4359C49.3248 67.5875 48.7879 70.2995 48.1584 71.3372C52.3952 70.3654 55.8581 67.8382 57.5823 64.5453C56.6061 64.9772 53.4544 65.5415 45.9553 60.9389ZM44.2822 47.7612C41.9493 47.7612 39.747 48.218 37.799 49.028C39.0441 49.3818 41.7176 50.9659 43.5939 58.0464C43.8109 57.9812 44.0452 57.9518 44.2822 57.9518C44.4067 57.9518 44.5294 57.9568 44.6444 57.974C46.6738 50.0836 49.6664 49.0753 50.5846 48.9557C48.6807 48.188 46.5441 47.7612 44.2822 47.7612ZM45.1364 61.4122L45.1451 61.4416L45.152 61.4359C45.152 61.4309 45.1451 61.4187 45.1364 61.4122ZM43.6025 61.4917C43.2679 61.4072 42.9713 61.2568 42.724 61.0534C36.2115 66.0757 32.9085 66.0392 31.6902 65.727C33.8276 68.8178 37.5742 71.0436 41.9787 71.6258C41.2325 70.7973 40.1379 68.2772 43.6025 61.4917ZM42.239 59.1027C33.4221 55.8263 32.7918 53.2045 32.8428 52.4053C30.9163 54.4399 29.7776 56.9894 29.7776 59.7687C29.7776 60.8128 29.9367 61.8197 30.241 62.7808C30.9008 61.8441 33.3279 59.9957 42.0946 59.9656C42.0868 59.899 42.0799 59.8331 42.0799 59.7687C42.0799 59.5345 42.13 59.3061 42.239 59.1027ZM54.9546 51.6441C54.9546 52.6409 54.0346 55.2033 46.1507 58.8205C46.334 59.0547 46.4395 59.3304 46.4619 59.624C55.2416 59.0125 57.859 60.6811 58.6199 61.5626C58.7193 60.9747 58.7789 60.381 58.7789 59.7687C58.7798 56.6363 57.3306 53.7796 54.9546 51.6441ZM42.239 59.1027C33.4221 55.8263 32.7918 53.2045 32.8428 52.4053C30.9163 54.4399 29.7776 56.9894 29.7776 59.7687C29.7776 60.8128 29.9367 61.8197 30.241 62.7808C30.9008 61.8441 33.3279 59.9957 42.0946 59.9656C42.0868 59.899 42.0799 59.8331 42.0799 59.7687C42.0799 59.5345 42.13 59.3061 42.239 59.1027ZM43.6025 61.4917C43.2679 61.4072 42.9713 61.2568 42.724 61.0534C36.2115 66.0757 32.9085 66.0392 31.6902 65.727C33.8276 68.8178 37.5742 71.0436 41.9787 71.6258C41.2325 70.7973 40.1379 68.2772 43.6025 61.4917ZM45.1364 61.4122L45.1451 61.4416L45.152 61.4359C45.152 61.4309 45.1451 61.4187 45.1364 61.4122ZM44.2822 47.7612C41.9493 47.7612 39.747 48.218 37.799 49.028C39.0441 49.3818 41.7176 50.9659 43.5939 58.0464C43.8109 57.9812 44.0452 57.9518 44.2822 57.9518C44.4067 57.9518 44.5294 57.9568 44.6444 57.974C46.6738 50.0836 49.6664 49.0753 50.5846 48.9557C48.6807 48.188 46.5441 47.7612 44.2822 47.7612ZM45.9553 60.9389C45.7391 61.1551 45.465 61.3285 45.152 61.4359C49.3248 67.5875 48.7879 70.2995 48.1584 71.3372C52.3952 70.3654 55.8581 67.8382 57.5823 64.5453C56.6061 64.9772 53.4544 65.5415 45.9553 60.9389ZM54.9546 51.6441C54.9546 52.6409 54.0346 55.2033 46.1507 58.8205C46.334 59.0547 46.4395 59.3304 46.4619 59.624C55.2416 59.0125 57.859 60.6811 58.6199 61.5626C58.7193 60.9747 58.7789 60.381 58.7789 59.7687C58.7798 56.6363 57.3306 53.7796 54.9546 51.6441ZM45.9553 60.9389C45.7391 61.1551 45.465 61.3285 45.152 61.4359C49.3248 67.5875 48.7879 70.2995 48.1584 71.3372C52.3952 70.3654 55.8581 67.8382 57.5823 64.5453C56.6061 64.9772 53.4544 65.5415 45.9553 60.9389ZM44.2822 47.7612C41.9493 47.7612 39.747 48.218 37.799 49.028C39.0441 49.3818 41.7176 50.9659 43.5939 58.0464C43.8109 57.9812 44.0452 57.9518 44.2822 57.9518C44.4067 57.9518 44.5294 57.9568 44.6444 57.974C46.6738 50.0836 49.6664 49.0753 50.5846 48.9557C48.6807 48.188 46.5441 47.7612 44.2822 47.7612ZM45.1364 61.4122L45.1451 61.4416L45.152 61.4359C45.152 61.4309 45.1451 61.4187 45.1364 61.4122ZM43.6025 61.4917C43.2679 61.4072 42.9713 61.2568 42.724 61.0534C36.2115 66.0757 32.9085 66.0392 31.6902 65.727C33.8276 68.8178 37.5742 71.0436 41.9787 71.6258C41.2325 70.7973 40.1379 68.2772 43.6025 61.4917ZM42.239 59.1027C33.4221 55.8263 32.7918 53.2045 32.8428 52.4053C30.9163 54.4399 29.7776 56.9894 29.7776 59.7687C29.7776 60.8128 29.9367 61.8197 30.241 62.7808C30.9008 61.8441 33.3279 59.9957 42.0946 59.9656C42.0868 59.899 42.0799 59.8331 42.0799 59.7687C42.0799 59.5345 42.13 59.3061 42.239 59.1027ZM54.9546 51.6441C54.9546 52.6409 54.0346 55.2033 46.1507 58.8205C46.334 59.0547 46.4395 59.3304 46.4619 59.624C55.2416 59.0125 57.859 60.6811 58.6199 61.5626C58.7193 60.9747 58.7789 60.381 58.7789 59.7687C58.7798 56.6363 57.3306 53.7796 54.9546 51.6441ZM42.239 59.1027C33.4221 55.8263 32.7918 53.2045 32.8428 52.4053C30.9163 54.4399 29.7776 56.9894 29.7776 59.7687C29.7776 60.8128 29.9367 61.8197 30.241 62.7808C30.9008 61.8441 33.3279 59.9957 42.0946 59.9656C42.0868 59.899 42.0799 59.8331 42.0799 59.7687C42.0799 59.5345 42.13 59.3061 42.239 59.1027ZM43.6025 61.4917C43.2679 61.4072 42.9713 61.2568 42.724 61.0534C36.2115 66.0757 32.9085 66.0392 31.6902 65.727C33.8276 68.8178 37.5742 71.0436 41.9787 71.6258C41.2325 70.7973 40.1379 68.2772 43.6025 61.4917ZM45.1364 61.4122L45.1451 61.4416L45.152 61.4359C45.152 61.4309 45.1451 61.4187 45.1364 61.4122ZM44.2822 47.7612C41.9493 47.7612 39.747 48.218 37.799 49.028C39.0441 49.3818 41.7176 50.9659 43.5939 58.0464C43.8109 57.9812 44.0452 57.9518 44.2822 57.9518C44.4067 57.9518 44.5294 57.9568 44.6444 57.974C46.6738 50.0836 49.6664 49.0753 50.5846 48.9557C48.6807 48.188 46.5441 47.7612 44.2822 47.7612ZM45.9553 60.9389C45.7391 61.1551 45.465 61.3285 45.152 61.4359C49.3248 67.5875 48.7879 70.2995 48.1584 71.3372C52.3952 70.3654 55.8581 67.8382 57.5823 64.5453C56.6061 64.9772 53.4544 65.5415 45.9553 60.9389ZM54.9546 51.6441C54.9546 52.6409 54.0346 55.2033 46.1507 58.8205C46.334 59.0547 46.4395 59.3304 46.4619 59.624C55.2416 59.0125 57.859 60.6811 58.6199 61.5626C58.7193 60.9747 58.7789 60.381 58.7789 59.7687C58.7798 56.6363 57.3306 53.7796 54.9546 51.6441ZM45.9553 60.9389C45.7391 61.1551 45.465 61.3285 45.152 61.4359C49.3248 67.5875 48.7879 70.2995 48.1584 71.3372C52.3952 70.3654 55.8581 67.8382 57.5823 64.5453C56.6061 64.9772 53.4544 65.5415 45.9553 60.9389ZM44.2822 47.7612C41.9493 47.7612 39.747 48.218 37.799 49.028C39.0441 49.3818 41.7176 50.9659 43.5939 58.0464C43.8109 57.9812 44.0452 57.9518 44.2822 57.9518C44.4067 57.9518 44.5294 57.9568 44.6444 57.974C46.6738 50.0836 49.6664 49.0753 50.5846 48.9557C48.6807 48.188 46.5441 47.7612 44.2822 47.7612ZM45.1364 61.4122L45.1451 61.4416L45.152 61.4359C45.152 61.4309 45.1451 61.4187 45.1364 61.4122ZM43.6025 61.4917C43.2679 61.4072 42.9713 61.2568 42.724 61.0534C36.2115 66.0757 32.9085 66.0392 31.6902 65.727C33.8276 68.8178 37.5742 71.0436 41.9787 71.6258C41.2325 70.7973 40.1379 68.2772 43.6025 61.4917ZM42.239 59.1027C33.4221 55.8263 32.7918 53.2045 32.8428 52.4053C30.9163 54.4399 29.7776 56.9894 29.7776 59.7687C29.7776 60.8128 29.9367 61.8197 30.241 62.7808C30.9008 61.8441 33.3279 59.9957 42.0946 59.9656C42.0868 59.899 42.0799 59.8331 42.0799 59.7687C42.0799 59.5345 42.13 59.3061 42.239 59.1027ZM54.9546 51.6441C54.9546 52.6409 54.0346 55.2033 46.1507 58.8205C46.334 59.0547 46.4395 59.3304 46.4619 59.624C55.2416 59.0125 57.859 60.6811 58.6199 61.5626C58.7193 60.9747 58.7789 60.381 58.7789 59.7687C58.7798 56.6363 57.3306 53.7796 54.9546 51.6441ZM42.239 59.1027C33.4221 55.8263 32.7918 53.2045 32.8428 52.4053C30.9163 54.4399 29.7776 56.9894 29.7776 59.7687C29.7776 60.8128 29.9367 61.8197 30.241 62.7808C30.9008 61.8441 33.3279 59.9957 42.0946 59.9656C42.0868 59.899 42.0799 59.8331 42.0799 59.7687C42.0799 59.5345 42.13 59.3061 42.239 59.1027ZM43.6025 61.4917C43.2679 61.4072 42.9713 61.2568 42.724 61.0534C36.2115 66.0757 32.9085 66.0392 31.6902 65.727C33.8276 68.8178 37.5742 71.0436 41.9787 71.6258C41.2325 70.7973 40.1379 68.2772 43.6025 61.4917ZM45.1364 61.4122L45.1451 61.4416L45.152 61.4359C45.152 61.4309 45.1451 61.4187 45.1364 61.4122ZM44.2822 47.7612C41.9493 47.7612 39.747 48.218 37.799 49.028C39.0441 49.3818 41.7176 50.9659 43.5939 58.0464C43.8109 57.9812 44.0452 57.9518 44.2822 57.9518C44.4067 57.9518 44.5294 57.9568 44.6444 57.974C46.6738 50.0836 49.6664 49.0753 50.5846 48.9557C48.6807 48.188 46.5441 47.7612 44.2822 47.7612ZM45.9553 60.9389C45.7391 61.1551 45.465 61.3285 45.152 61.4359C49.3248 67.5875 48.7879 70.2995 48.1584 71.3372C52.3952 70.3654 55.8581 67.8382 57.5823 64.5453C56.6061 64.9772 53.4544 65.5415 45.9553 60.9389ZM54.9546 51.6441C54.9546 52.6409 54.0346 55.2033 46.1507 58.8205C46.334 59.0547 46.4395 59.3304 46.4619 59.624C55.2416 59.0125 57.859 60.6811 58.6199 61.5626C58.7193 60.9747 58.7789 60.381 58.7789 59.7687C58.7798 56.6363 57.3306 53.7796 54.9546 51.6441ZM45.9553 60.9389C45.7391 61.1551 45.465 61.3285 45.152 61.4359C49.3248 67.5875 48.7879 70.2995 48.1584 71.3372C52.3952 70.3654 55.8581 67.8382 57.5823 64.5453C56.6061 64.9772 53.4544 65.5415 45.9553 60.9389ZM44.2822 47.7612C41.9493 47.7612 39.747 48.218 37.799 49.028C39.0441 49.3818 41.7176 50.9659 43.5939 58.0464C43.8109 57.9812 44.0452 57.9518 44.2822 57.9518C44.4067 57.9518 44.5294 57.9568 44.6444 57.974C46.6738 50.0836 49.6664 49.0753 50.5846 48.9557C48.6807 48.188 46.5441 47.7612 44.2822 47.7612ZM45.1364 61.4122L45.1451 61.4416L45.152 61.4359C45.152 61.4309 45.1451 61.4187 45.1364 61.4122ZM43.6025 61.4917C43.2679 61.4072 42.9713 61.2568 42.724 61.0534C36.2115 66.0757 32.9085 66.0392 31.6902 65.727C33.8276 68.8178 37.5742 71.0436 41.9787 71.6258C41.2325 70.7973 40.1379 68.2772 43.6025 61.4917ZM42.239 59.1027C33.4221 55.8263 32.7918 53.2045 32.8428 52.4053C30.9163 54.4399 29.7776 56.9894 29.7776 59.7687C29.7776 60.8128 29.9367 61.8197 30.241 62.7808C30.9008 61.8441 33.3279 59.9957 42.0946 59.9656C42.0868 59.899 42.0799 59.8331 42.0799 59.7687C42.0799 59.5345 42.13 59.3061 42.239 59.1027ZM54.9546 51.6441C54.9546 52.6409 54.0346 55.2033 46.1507 58.8205C46.334 59.0547 46.4395 59.3304 46.4619 59.624C55.2416 59.0125 57.859 60.6811 58.6199 61.5626C58.7193 60.9747 58.7789 60.381 58.7789 59.7687C58.7798 56.6363 57.3306 53.7796 54.9546 51.6441ZM42.239 59.1027C33.4221 55.8263 32.7918 53.2045 32.8428 52.4053C30.9163 54.4399 29.7776 56.9894 29.7776 59.7687C29.7776 60.8128 29.9367 61.8197 30.241 62.7808C30.9008 61.8441 33.3279 59.9957 42.0946 59.9656C42.0868 59.899 42.0799 59.8331 42.0799 59.7687C42.0799 59.5345 42.13 59.3061 42.239 59.1027ZM43.6025 61.4917C43.2679 61.4072 42.9713 61.2568 42.724 61.0534C36.2115 66.0757 32.9085 66.0392 31.6902 65.727C33.8276 68.8178 37.5742 71.0436 41.9787 71.6258C41.2325 70.7973 40.1379 68.2772 43.6025 61.4917ZM45.1364 61.4122L45.1451 61.4416L45.152 61.4359C45.152 61.4309 45.1451 61.4187 45.1364 61.4122ZM44.2822 47.7612C41.9493 47.7612 39.747 48.218 37.799 49.028C39.0441 49.3818 41.7176 50.9659 43.5939 58.0464C43.8109 57.9812 44.0452 57.9518 44.2822 57.9518C44.4067 57.9518 44.5294 57.9568 44.6444 57.974C46.6738 50.0836 49.6664 49.0753 50.5846 48.9557C48.6807 48.188 46.5441 47.7612 44.2822 47.7612ZM45.9553 60.9389C45.7391 61.1551 45.465 61.3285 45.152 61.4359C49.3248 67.5875 48.7879 70.2995 48.1584 71.3372C52.3952 70.3654 55.8581 67.8382 57.5823 64.5453C56.6061 64.9772 53.4544 65.5415 45.9553 60.9389ZM54.9546 51.6441C54.9546 52.6409 54.0346 55.2033 46.1507 58.8205C46.334 59.0547 46.4395 59.3304 46.4619 59.624C55.2416 59.0125 57.859 60.6811 58.6199 61.5626C58.7193 60.9747 58.7789 60.381 58.7789 59.7687C58.7798 56.6363 57.3306 53.7796 54.9546 51.6441ZM45.9553 60.9389C45.7391 61.1551 45.465 61.3285 45.152 61.4359C49.3248 67.5875 48.7879 70.2995 48.1584 71.3372C52.3952 70.3654 55.8581 67.8382 57.5823 64.5453C56.6061 64.9772 53.4544 65.5415 45.9553 60.9389ZM44.2822 47.7612C41.9493 47.7612 39.747 48.218 37.799 49.028C39.0441 49.3818 41.7176 50.9659 43.5939 58.0464C43.8109 57.9812 44.0452 57.9518 44.2822 57.9518C44.4067 57.9518 44.5294 57.9568 44.6444 57.974C46.6738 50.0836 49.6664 49.0753 50.5846 48.9557C48.6807 48.188 46.5441 47.7612 44.2822 47.7612ZM45.1364 61.4122L45.1451 61.4416L45.152 61.4359C45.152 61.4309 45.1451 61.4187 45.1364 61.4122ZM43.6025 61.4917C43.2679 61.4072 42.9713 61.2568 42.724 61.0534C36.2115 66.0757 32.9085 66.0392 31.6902 65.727C33.8276 68.8178 37.5742 71.0436 41.9787 71.6258C41.2325 70.7973 40.1379 68.2772 43.6025 61.4917ZM42.239 59.1027C33.4221 55.8263 32.7918 53.2045 32.8428 52.4053C30.9163 54.4399 29.7776 56.9894 29.7776 59.7687C29.7776 60.8128 29.9367 61.8197 30.241 62.7808C30.9008 61.8441 33.3279 59.9957 42.0946 59.9656C42.0868 59.899 42.0799 59.8331 42.0799 59.7687C42.0799 59.5345 42.13 59.3061 42.239 59.1027ZM45.1364 61.4122L45.1451 61.4416L45.152 61.4359C45.152 61.4309 45.1451 61.4187 45.1364 61.4122ZM45.1364 61.4122L45.1451 61.4416L45.152 61.4359C45.152 61.4309 45.1451 61.4187 45.1364 61.4122ZM45.1364 61.4122L45.1451 61.4416L45.152 61.4359C45.152 61.4309 45.1451 61.4187 45.1364 61.4122ZM45.1364 61.4122L45.1451 61.4416L45.152 61.4359C45.152 61.4309 45.1451 61.4187 45.1364 61.4122ZM45.1364 61.4122L45.1451 61.4416L45.152 61.4359C45.152 61.4309 45.1451 61.4187 45.1364 61.4122ZM45.1364 61.4122L45.1451 61.4416L45.152 61.4359C45.152 61.4309 45.1451 61.4187 45.1364 61.4122ZM45.1364 61.4122L45.1451 61.4416L45.152 61.4359C45.152 61.4309 45.1451 61.4187 45.1364 61.4122ZM45.1364 61.4122L45.1451 61.4416L45.152 61.4359C45.152 61.4309 45.1451 61.4187 45.1364 61.4122ZM45.1364 61.4122L45.1451 61.4416L45.152 61.4359C45.152 61.4309 45.1451 61.4187 45.1364 61.4122ZM45.1364 61.4122L45.1451 61.4416L45.152 61.4359C45.152 61.4309 45.1451 61.4187 45.1364 61.4122Z" fill="white" fill-opacity="0.5"/>
<path d="M45.1514 61.4372L45.1445 61.4431L45.1359 61.413C45.1445 61.4189 45.1514 61.4313 45.1514 61.4372Z" fill="white" fill-opacity="0.5"/>
<path d="M46.4769 59.7687C46.4769 60.2005 46.2884 60.6023 45.9849 60.9152C45.9702 60.9274 45.9633 60.9324 45.9555 60.9389C45.7393 61.1551 45.4643 61.3285 45.1513 61.4359C45.1513 61.4301 45.1444 61.4187 45.1358 61.4122L45.1444 61.4416C44.8833 61.5325 44.5867 61.587 44.2815 61.587C44.0498 61.587 43.8258 61.5562 43.6174 61.496C43.6079 61.5025 43.6079 61.496 43.6019 61.491C43.2672 61.4065 42.9707 61.2561 42.7234 61.0527C42.7173 61.047 42.7095 61.0348 42.6957 61.0284C42.3775 60.7577 42.1588 60.3989 42.1008 60.0079C42.0939 59.9957 42.0939 59.9778 42.0939 59.9656C42.0861 59.899 42.0792 59.8331 42.0792 59.7687C42.0792 59.5345 42.1302 59.3053 42.2392 59.102C42.2392 59.0833 42.2539 59.0597 42.2608 59.0418C42.5064 58.5799 42.9707 58.219 43.55 58.0578C43.5656 58.0449 43.5785 58.0449 43.5932 58.0449C43.8102 57.9798 44.0446 57.9504 44.2815 57.9504C44.406 57.9504 44.5288 57.9554 44.6438 57.9726C44.6654 57.9798 44.6879 57.9798 44.7095 57.9848C45.3113 58.0807 45.8249 58.3815 46.1362 58.7947C46.1431 58.8012 46.1509 58.8076 46.1509 58.8191C46.3342 59.0533 46.4397 59.329 46.4622 59.6226C46.4691 59.629 46.4691 59.6412 46.4691 59.6469V59.6527C46.4769 59.6971 46.4769 59.7272 46.4769 59.7687Z" fill="white" fill-opacity="0.5"/>
<path d="M45.1514 61.4372L45.1445 61.4431L45.1359 61.413C45.1445 61.4189 45.1514 61.4313 45.1514 61.4372Z" fill="white" fill-opacity="0.5"/>
<path d="M45.1514 61.4372L45.1445 61.4431L45.1359 61.413C45.1445 61.4189 45.1514 61.4313 45.1514 61.4372Z" fill="white" fill-opacity="0.5"/>
<path d="M207.043 61.3377L207.052 61.3671L207.058 61.3614C207.058 61.3556 207.052 61.3442 207.043 61.3377ZM207.043 61.3377L207.052 61.3671L207.058 61.3614C207.058 61.3556 207.052 61.3442 207.043 61.3377ZM207.043 61.3377L207.052 61.3671L207.058 61.3614C207.058 61.3556 207.052 61.3442 207.043 61.3377ZM207.043 61.3377L207.052 61.3671L207.058 61.3614C207.058 61.3556 207.052 61.3442 207.043 61.3377ZM207.043 61.3377L207.052 61.3671L207.058 61.3614C207.058 61.3556 207.052 61.3442 207.043 61.3377ZM207.043 61.3377L207.052 61.3671L207.058 61.3614C207.058 61.3556 207.052 61.3442 207.043 61.3377ZM207.043 61.3377L207.052 61.3671L207.058 61.3614C207.058 61.3556 207.052 61.3442 207.043 61.3377ZM207.043 61.3377L207.052 61.3671L207.058 61.3614C207.058 61.3556 207.052 61.3442 207.043 61.3377ZM207.043 61.3377L207.052 61.3671L207.058 61.3614C207.058 61.3556 207.052 61.3442 207.043 61.3377ZM207.043 61.3377L207.052 61.3671L207.058 61.3614C207.058 61.3556 207.052 61.3442 207.043 61.3377ZM216.861 51.5689C216.861 52.5657 215.94 55.1281 208.057 58.7453C208.24 58.9795 208.346 59.2552 208.368 59.5488C217.148 58.9372 219.765 60.6058 220.526 61.4874C220.626 60.8995 220.685 60.3058 220.685 59.6935C220.686 56.5618 219.237 53.7051 216.861 51.5689ZM204.145 59.0275C195.329 55.7511 194.698 53.1293 194.749 52.3301C192.822 54.3647 191.684 56.9141 191.684 59.6935C191.684 60.7376 191.843 61.7445 192.147 62.7056C192.807 61.7689 195.234 59.9205 204.001 59.8904C203.993 59.8238 203.985 59.7579 203.985 59.6935C203.986 59.46 204.036 59.2309 204.145 59.0275ZM205.509 61.4165C205.174 61.332 204.879 61.1816 204.63 60.9782C198.118 66.0005 194.815 65.964 193.597 65.6518C195.734 68.7426 199.481 70.9684 203.884 71.5506C203.139 70.7221 202.044 68.2027 205.509 61.4165ZM207.043 61.3377L207.052 61.3671L207.058 61.3614C207.058 61.3556 207.052 61.3442 207.043 61.3377ZM206.189 47.6859C203.856 47.6859 201.653 48.1428 199.705 48.9528C200.951 49.3066 203.624 50.8907 205.5 57.9712C205.717 57.906 205.951 57.8766 206.189 57.8766C206.313 57.8766 206.436 57.8816 206.551 57.8988C208.58 50.0084 211.573 49.0001 212.491 48.8805C210.587 48.1128 208.45 47.6859 206.189 47.6859ZM207.862 60.8644C207.646 61.0807 207.371 61.254 207.058 61.3614C211.23 67.513 210.694 70.2251 210.066 71.2627C214.302 70.2909 217.765 67.7637 219.49 64.4708C218.512 64.902 215.361 65.4663 207.862 60.8644ZM216.861 51.5689C216.861 52.5657 215.94 55.1281 208.057 58.7453C208.24 58.9795 208.346 59.2552 208.368 59.5488C217.148 58.9372 219.765 60.6058 220.526 61.4874C220.626 60.8995 220.685 60.3058 220.685 59.6935C220.686 56.5618 219.237 53.7051 216.861 51.5689ZM207.862 60.8644C207.646 61.0807 207.371 61.254 207.058 61.3614C211.23 67.513 210.694 70.2251 210.066 71.2627C214.302 70.2909 217.765 67.7637 219.49 64.4708C218.512 64.902 215.361 65.4663 207.862 60.8644ZM206.189 47.6859C203.856 47.6859 201.653 48.1428 199.705 48.9528C200.951 49.3066 203.624 50.8907 205.5 57.9712C205.717 57.906 205.951 57.8766 206.189 57.8766C206.313 57.8766 206.436 57.8816 206.551 57.8988C208.58 50.0084 211.573 49.0001 212.491 48.8805C210.587 48.1128 208.45 47.6859 206.189 47.6859ZM207.043 61.3377L207.052 61.3671L207.058 61.3614C207.058 61.3556 207.052 61.3442 207.043 61.3377ZM205.509 61.4165C205.174 61.332 204.879 61.1816 204.63 60.9782C198.118 66.0005 194.815 65.964 193.597 65.6518C195.734 68.7426 199.481 70.9684 203.884 71.5506C203.139 70.7221 202.044 68.2027 205.509 61.4165ZM204.145 59.0275C195.329 55.7511 194.698 53.1293 194.749 52.3301C192.822 54.3647 191.684 56.9141 191.684 59.6935C191.684 60.7376 191.843 61.7445 192.147 62.7056C192.807 61.7689 195.234 59.9205 204.001 59.8904C203.993 59.8238 203.985 59.7579 203.985 59.6935C203.986 59.46 204.036 59.2309 204.145 59.0275ZM216.861 51.5689C216.861 52.5657 215.94 55.1281 208.057 58.7453C208.24 58.9795 208.346 59.2552 208.368 59.5488C217.148 58.9372 219.765 60.6058 220.526 61.4874C220.626 60.8995 220.685 60.3058 220.685 59.6935C220.686 56.5618 219.237 53.7051 216.861 51.5689ZM204.145 59.0275C195.329 55.7511 194.698 53.1293 194.749 52.3301C192.822 54.3647 191.684 56.9141 191.684 59.6935C191.684 60.7376 191.843 61.7445 192.147 62.7056C192.807 61.7689 195.234 59.9205 204.001 59.8904C203.993 59.8238 203.985 59.7579 203.985 59.6935C203.986 59.46 204.036 59.2309 204.145 59.0275ZM205.509 61.4165C205.174 61.332 204.879 61.1816 204.63 60.9782C198.118 66.0005 194.815 65.964 193.597 65.6518C195.734 68.7426 199.481 70.9684 203.884 71.5506C203.139 70.7221 202.044 68.2027 205.509 61.4165ZM207.043 61.3377L207.052 61.3671L207.058 61.3614C207.058 61.3556 207.052 61.3442 207.043 61.3377ZM206.189 47.6859C203.856 47.6859 201.653 48.1428 199.705 48.9528C200.951 49.3066 203.624 50.8907 205.5 57.9712C205.717 57.906 205.951 57.8766 206.189 57.8766C206.313 57.8766 206.436 57.8816 206.551 57.8988C208.58 50.0084 211.573 49.0001 212.491 48.8805C210.587 48.1128 208.45 47.6859 206.189 47.6859ZM207.862 60.8644C207.646 61.0807 207.371 61.254 207.058 61.3614C211.23 67.513 210.694 70.2251 210.066 71.2627C214.302 70.2909 217.765 67.7637 219.49 64.4708C218.512 64.902 215.361 65.4663 207.862 60.8644ZM216.861 51.5689C216.861 52.5657 215.94 55.1281 208.057 58.7453C208.24 58.9795 208.346 59.2552 208.368 59.5488C217.148 58.9372 219.765 60.6058 220.526 61.4874C220.626 60.8995 220.685 60.3058 220.685 59.6935C220.686 56.5618 219.237 53.7051 216.861 51.5689ZM207.862 60.8644C207.646 61.0807 207.371 61.254 207.058 61.3614C211.23 67.513 210.694 70.2251 210.066 71.2627C214.302 70.2909 217.765 67.7637 219.49 64.4708C218.512 64.902 215.361 65.4663 207.862 60.8644ZM206.189 47.6859C203.856 47.6859 201.653 48.1428 199.705 48.9528C200.951 49.3066 203.624 50.8907 205.5 57.9712C205.717 57.906 205.951 57.8766 206.189 57.8766C206.313 57.8766 206.436 57.8816 206.551 57.8988C208.58 50.0084 211.573 49.0001 212.491 48.8805C210.587 48.1128 208.45 47.6859 206.189 47.6859ZM207.043 61.3377L207.052 61.3671L207.058 61.3614C207.058 61.3556 207.052 61.3442 207.043 61.3377ZM205.509 61.4165C205.174 61.332 204.879 61.1816 204.63 60.9782C198.118 66.0005 194.815 65.964 193.597 65.6518C195.734 68.7426 199.481 70.9684 203.884 71.5506C203.139 70.7221 202.044 68.2027 205.509 61.4165ZM204.145 59.0275C195.329 55.7511 194.698 53.1293 194.749 52.3301C192.822 54.3647 191.684 56.9141 191.684 59.6935C191.684 60.7376 191.843 61.7445 192.147 62.7056C192.807 61.7689 195.234 59.9205 204.001 59.8904C203.993 59.8238 203.985 59.7579 203.985 59.6935C203.986 59.46 204.036 59.2309 204.145 59.0275ZM216.861 51.5689C216.861 52.5657 215.94 55.1281 208.057 58.7453C208.24 58.9795 208.346 59.2552 208.368 59.5488C217.148 58.9372 219.765 60.6058 220.526 61.4874C220.626 60.8995 220.685 60.3058 220.685 59.6935C220.686 56.5618 219.237 53.7051 216.861 51.5689ZM204.145 59.0275C195.329 55.7511 194.698 53.1293 194.749 52.3301C192.822 54.3647 191.684 56.9141 191.684 59.6935C191.684 60.7376 191.843 61.7445 192.147 62.7056C192.807 61.7689 195.234 59.9205 204.001 59.8904C203.993 59.8238 203.985 59.7579 203.985 59.6935C203.986 59.46 204.036 59.2309 204.145 59.0275ZM205.509 61.4165C205.174 61.332 204.879 61.1816 204.63 60.9782C198.118 66.0005 194.815 65.964 193.597 65.6518C195.734 68.7426 199.481 70.9684 203.884 71.5506C203.139 70.7221 202.044 68.2027 205.509 61.4165ZM207.043 61.3377L207.052 61.3671L207.058 61.3614C207.058 61.3556 207.052 61.3442 207.043 61.3377ZM206.189 47.6859C203.856 47.6859 201.653 48.1428 199.705 48.9528C200.951 49.3066 203.624 50.8907 205.5 57.9712C205.717 57.906 205.951 57.8766 206.189 57.8766C206.313 57.8766 206.436 57.8816 206.551 57.8988C208.58 50.0084 211.573 49.0001 212.491 48.8805C210.587 48.1128 208.45 47.6859 206.189 47.6859ZM207.862 60.8644C207.646 61.0807 207.371 61.254 207.058 61.3614C211.23 67.513 210.694 70.2251 210.066 71.2627C214.302 70.2909 217.765 67.7637 219.49 64.4708C218.512 64.902 215.361 65.4663 207.862 60.8644ZM216.861 51.5689C216.861 52.5657 215.94 55.1281 208.057 58.7453C208.24 58.9795 208.346 59.2552 208.368 59.5488C217.148 58.9372 219.765 60.6058 220.526 61.4874C220.626 60.8995 220.685 60.3058 220.685 59.6935C220.686 56.5618 219.237 53.7051 216.861 51.5689ZM207.862 60.8644C207.646 61.0807 207.371 61.254 207.058 61.3614C211.23 67.513 210.694 70.2251 210.066 71.2627C214.302 70.2909 217.765 67.7637 219.49 64.4708C218.512 64.902 215.361 65.4663 207.862 60.8644ZM206.189 47.6859C203.856 47.6859 201.653 48.1428 199.705 48.9528C200.951 49.3066 203.624 50.8907 205.5 57.9712C205.717 57.906 205.951 57.8766 206.189 57.8766C206.313 57.8766 206.436 57.8816 206.551 57.8988C208.58 50.0084 211.573 49.0001 212.491 48.8805C210.587 48.1128 208.45 47.6859 206.189 47.6859ZM207.043 61.3377L207.052 61.3671L207.058 61.3614C207.058 61.3556 207.052 61.3442 207.043 61.3377ZM205.509 61.4165C205.174 61.332 204.879 61.1816 204.63 60.9782C198.118 66.0005 194.815 65.964 193.597 65.6518C195.734 68.7426 199.481 70.9684 203.884 71.5506C203.139 70.7221 202.044 68.2027 205.509 61.4165ZM204.145 59.0275C195.329 55.7511 194.698 53.1293 194.749 52.3301C192.822 54.3647 191.684 56.9141 191.684 59.6935C191.684 60.7376 191.843 61.7445 192.147 62.7056C192.807 61.7689 195.234 59.9205 204.001 59.8904C203.993 59.8238 203.985 59.7579 203.985 59.6935C203.986 59.46 204.036 59.2309 204.145 59.0275ZM216.861 51.5689C216.861 52.5657 215.94 55.1281 208.057 58.7453C208.24 58.9795 208.346 59.2552 208.368 59.5488C217.148 58.9372 219.765 60.6058 220.526 61.4874C220.626 60.8995 220.685 60.3058 220.685 59.6935C220.686 56.5618 219.237 53.7051 216.861 51.5689ZM204.145 59.0275C195.329 55.7511 194.698 53.1293 194.749 52.3301C192.822 54.3647 191.684 56.9141 191.684 59.6935C191.684 60.7376 191.843 61.7445 192.147 62.7056C192.807 61.7689 195.234 59.9205 204.001 59.8904C203.993 59.8238 203.985 59.7579 203.985 59.6935C203.986 59.46 204.036 59.2309 204.145 59.0275ZM205.509 61.4165C205.174 61.332 204.879 61.1816 204.63 60.9782C198.118 66.0005 194.815 65.964 193.597 65.6518C195.734 68.7426 199.481 70.9684 203.884 71.5506C203.139 70.7221 202.044 68.2027 205.509 61.4165ZM207.043 61.3377L207.052 61.3671L207.058 61.3614C207.058 61.3556 207.052 61.3442 207.043 61.3377ZM206.189 47.6859C203.856 47.6859 201.653 48.1428 199.705 48.9528C200.951 49.3066 203.624 50.8907 205.5 57.9712C205.717 57.906 205.951 57.8766 206.189 57.8766C206.313 57.8766 206.436 57.8816 206.551 57.8988C208.58 50.0084 211.573 49.0001 212.491 48.8805C210.587 48.1128 208.45 47.6859 206.189 47.6859ZM207.862 60.8644C207.646 61.0807 207.371 61.254 207.058 61.3614C211.23 67.513 210.694 70.2251 210.066 71.2627C214.302 70.2909 217.765 67.7637 219.49 64.4708C218.512 64.902 215.361 65.4663 207.862 60.8644ZM216.861 51.5689C216.861 52.5657 215.94 55.1281 208.057 58.7453C208.24 58.9795 208.346 59.2552 208.368 59.5488C217.148 58.9372 219.765 60.6058 220.526 61.4874C220.626 60.8995 220.685 60.3058 220.685 59.6935C220.686 56.5618 219.237 53.7051 216.861 51.5689ZM207.862 60.8644C207.646 61.0807 207.371 61.254 207.058 61.3614C211.23 67.513 210.694 70.2251 210.066 71.2627C214.302 70.2909 217.765 67.7637 219.49 64.4708C218.512 64.902 215.361 65.4663 207.862 60.8644ZM206.189 47.6859C203.856 47.6859 201.653 48.1428 199.705 48.9528C200.951 49.3066 203.624 50.8907 205.5 57.9712C205.717 57.906 205.951 57.8766 206.189 57.8766C206.313 57.8766 206.436 57.8816 206.551 57.8988C208.58 50.0084 211.573 49.0001 212.491 48.8805C210.587 48.1128 208.45 47.6859 206.189 47.6859ZM207.043 61.3377L207.052 61.3671L207.058 61.3614C207.058 61.3556 207.052 61.3442 207.043 61.3377ZM205.509 61.4165C205.174 61.332 204.879 61.1816 204.63 60.9782C198.118 66.0005 194.815 65.964 193.597 65.6518C195.734 68.7426 199.481 70.9684 203.884 71.5506C203.139 70.7221 202.044 68.2027 205.509 61.4165ZM204.145 59.0275C195.329 55.7511 194.698 53.1293 194.749 52.3301C192.822 54.3647 191.684 56.9141 191.684 59.6935C191.684 60.7376 191.843 61.7445 192.147 62.7056C192.807 61.7689 195.234 59.9205 204.001 59.8904C203.993 59.8238 203.985 59.7579 203.985 59.6935C203.986 59.46 204.036 59.2309 204.145 59.0275ZM216.861 51.5689C216.861 52.5657 215.94 55.1281 208.057 58.7453C208.24 58.9795 208.346 59.2552 208.368 59.5488C217.148 58.9372 219.765 60.6058 220.526 61.4874C220.626 60.8995 220.685 60.3058 220.685 59.6935C220.686 56.5618 219.237 53.7051 216.861 51.5689ZM204.145 59.0275C195.329 55.7511 194.698 53.1293 194.749 52.3301C192.822 54.3647 191.684 56.9141 191.684 59.6935C191.684 60.7376 191.843 61.7445 192.147 62.7056C192.807 61.7689 195.234 59.9205 204.001 59.8904C203.993 59.8238 203.985 59.7579 203.985 59.6935C203.986 59.46 204.036 59.2309 204.145 59.0275ZM205.509 61.4165C205.174 61.332 204.879 61.1816 204.63 60.9782C198.118 66.0005 194.815 65.964 193.597 65.6518C195.734 68.7426 199.481 70.9684 203.884 71.5506C203.139 70.7221 202.044 68.2027 205.509 61.4165ZM207.043 61.3377L207.052 61.3671L207.058 61.3614C207.058 61.3556 207.052 61.3442 207.043 61.3377ZM206.189 47.6859C203.856 47.6859 201.653 48.1428 199.705 48.9528C200.951 49.3066 203.624 50.8907 205.5 57.9712C205.717 57.906 205.951 57.8766 206.189 57.8766C206.313 57.8766 206.436 57.8816 206.551 57.8988C208.58 50.0084 211.573 49.0001 212.491 48.8805C210.587 48.1128 208.45 47.6859 206.189 47.6859ZM207.862 60.8644C207.646 61.0807 207.371 61.254 207.058 61.3614C211.23 67.513 210.694 70.2251 210.066 71.2627C214.302 70.2909 217.765 67.7637 219.49 64.4708C218.512 64.902 215.361 65.4663 207.862 60.8644ZM216.861 51.5689C216.861 52.5657 215.94 55.1281 208.057 58.7453C208.24 58.9795 208.346 59.2552 208.368 59.5488C217.148 58.9372 219.765 60.6058 220.526 61.4874C220.626 60.8995 220.685 60.3058 220.685 59.6935C220.686 56.5618 219.237 53.7051 216.861 51.5689ZM207.862 60.8644C207.646 61.0807 207.371 61.254 207.058 61.3614C211.23 67.513 210.694 70.2251 210.066 71.2627C214.302 70.2909 217.765 67.7637 219.49 64.4708C218.512 64.902 215.361 65.4663 207.862 60.8644ZM206.189 47.6859C203.856 47.6859 201.653 48.1428 199.705 48.9528C200.951 49.3066 203.624 50.8907 205.5 57.9712C205.717 57.906 205.951 57.8766 206.189 57.8766C206.313 57.8766 206.436 57.8816 206.551 57.8988C208.58 50.0084 211.573 49.0001 212.491 48.8805C210.587 48.1128 208.45 47.6859 206.189 47.6859ZM207.043 61.3377L207.052 61.3671L207.058 61.3614C207.058 61.3556 207.052 61.3442 207.043 61.3377ZM205.509 61.4165C205.174 61.332 204.879 61.1816 204.63 60.9782C198.118 66.0005 194.815 65.964 193.597 65.6518C195.734 68.7426 199.481 70.9684 203.884 71.5506C203.139 70.7221 202.044 68.2027 205.509 61.4165ZM204.145 59.0275C195.329 55.7511 194.698 53.1293 194.749 52.3301C192.822 54.3647 191.684 56.9141 191.684 59.6935C191.684 60.7376 191.843 61.7445 192.147 62.7056C192.807 61.7689 195.234 59.9205 204.001 59.8904C203.993 59.8238 203.985 59.7579 203.985 59.6935C203.986 59.46 204.036 59.2309 204.145 59.0275ZM216.861 51.5689C216.861 52.5657 215.94 55.1281 208.057 58.7453C208.24 58.9795 208.346 59.2552 208.368 59.5488C217.148 58.9372 219.765 60.6058 220.526 61.4874C220.626 60.8995 220.685 60.3058 220.685 59.6935C220.686 56.5618 219.237 53.7051 216.861 51.5689ZM204.145 59.0275C195.329 55.7511 194.698 53.1293 194.749 52.3301C192.822 54.3647 191.684 56.9141 191.684 59.6935C191.684 60.7376 191.843 61.7445 192.147 62.7056C192.807 61.7689 195.234 59.9205 204.001 59.8904C203.993 59.8238 203.985 59.7579 203.985 59.6935C203.986 59.46 204.036 59.2309 204.145 59.0275ZM205.509 61.4165C205.174 61.332 204.879 61.1816 204.63 60.9782C198.118 66.0005 194.815 65.964 193.597 65.6518C195.734 68.7426 199.481 70.9684 203.884 71.5506C203.139 70.7221 202.044 68.2027 205.509 61.4165ZM207.043 61.3377L207.052 61.3671L207.058 61.3614C207.058 61.3556 207.052 61.3442 207.043 61.3377ZM206.189 47.6859C203.856 47.6859 201.653 48.1428 199.705 48.9528C200.951 49.3066 203.624 50.8907 205.5 57.9712C205.717 57.906 205.951 57.8766 206.189 57.8766C206.313 57.8766 206.436 57.8816 206.551 57.8988C208.58 50.0084 211.573 49.0001 212.491 48.8805C210.587 48.1128 208.45 47.6859 206.189 47.6859ZM207.862 60.8644C207.646 61.0807 207.371 61.254 207.058 61.3614C211.23 67.513 210.694 70.2251 210.066 71.2627C214.302 70.2909 217.765 67.7637 219.49 64.4708C218.512 64.902 215.361 65.4663 207.862 60.8644ZM216.861 51.5689C216.861 52.5657 215.94 55.1281 208.057 58.7453C208.24 58.9795 208.346 59.2552 208.368 59.5488C217.148 58.9372 219.765 60.6058 220.526 61.4874C220.626 60.8995 220.685 60.3058 220.685 59.6935C220.686 56.5618 219.237 53.7051 216.861 51.5689ZM207.862 60.8644C207.646 61.0807 207.371 61.254 207.058 61.3614C211.23 67.513 210.694 70.2251 210.066 71.2627C214.302 70.2909 217.765 67.7637 219.49 64.4708C218.512 64.902 215.361 65.4663 207.862 60.8644ZM212.491 48.8805C210.587 48.1128 208.45 47.6859 206.189 47.6859C203.856 47.6859 201.653 48.1428 199.705 48.9528C200.951 49.3066 203.624 50.8907 205.5 57.9712C205.717 57.906 205.951 57.8766 206.189 57.8766C206.313 57.8766 206.436 57.8816 206.551 57.8988C208.579 50.0091 211.572 49.0001 212.491 48.8805ZM207.052 61.3671L207.058 61.3614C207.058 61.3556 207.052 61.3442 207.043 61.3377L207.052 61.3671ZM204.63 60.9782C198.118 66.0005 194.815 65.964 193.597 65.6518C195.734 68.7426 199.481 70.9684 203.884 71.5506C203.139 70.7221 202.043 68.202 205.508 61.4165C205.174 61.332 204.878 61.1816 204.63 60.9782ZM203.986 59.6942C203.986 59.46 204.036 59.2309 204.145 59.0275C195.329 55.7511 194.698 53.1293 194.749 52.3301C192.822 54.3647 191.684 56.9141 191.684 59.6935C191.684 60.7376 191.843 61.7445 192.147 62.7056C192.807 61.7689 195.234 59.9205 204.001 59.8904C203.993 59.8252 203.986 59.7594 203.986 59.6942ZM216.861 51.5689C216.861 52.5657 215.94 55.1281 208.057 58.7453C208.24 58.9795 208.346 59.2552 208.368 59.5488C217.148 58.9372 219.765 60.6058 220.526 61.4874C220.626 60.8995 220.685 60.3058 220.685 59.6935C220.686 56.5618 219.237 53.7051 216.861 51.5689ZM206.189 43.942C195.685 43.942 187.172 50.9931 187.172 59.6942C187.172 68.3939 195.685 75.445 206.189 75.445C216.687 75.445 225.208 68.3939 225.208 59.6942C225.208 50.9924 216.686 43.942 206.189 43.942ZM206.189 72.4272C197.697 72.4272 190.808 66.726 190.808 59.6942C190.808 52.6617 197.697 46.9548 206.189 46.9548C214.679 46.9548 221.562 52.6617 221.562 59.6942C221.562 66.726 214.679 72.4272 206.189 72.4272ZM207.862 60.8644C207.646 61.0807 207.371 61.254 207.058 61.3614C211.23 67.513 210.694 70.2251 210.066 71.2627C214.302 70.2909 217.765 67.7637 219.49 64.4708C218.512 64.902 215.361 65.4663 207.862 60.8644ZM212.491 48.8805C210.587 48.1128 208.45 47.6859 206.189 47.6859C203.856 47.6859 201.653 48.1428 199.705 48.9528C200.951 49.3066 203.624 50.8907 205.5 57.9712C205.717 57.906 205.951 57.8766 206.189 57.8766C206.313 57.8766 206.436 57.8816 206.551 57.8988C208.579 50.0091 211.572 49.0001 212.491 48.8805ZM207.052 61.3671L207.058 61.3614C207.058 61.3556 207.052 61.3442 207.043 61.3377L207.052 61.3671ZM204.63 60.9782C198.118 66.0005 194.815 65.964 193.597 65.6518C195.734 68.7426 199.481 70.9684 203.884 71.5506C203.139 70.7221 202.043 68.202 205.508 61.4165C205.174 61.332 204.878 61.1816 204.63 60.9782ZM203.986 59.6942C203.986 59.46 204.036 59.2309 204.145 59.0275C195.329 55.7511 194.698 53.1293 194.749 52.3301C192.822 54.3647 191.684 56.9141 191.684 59.6935C191.684 60.7376 191.843 61.7445 192.147 62.7056C192.807 61.7689 195.234 59.9205 204.001 59.8904C203.993 59.8252 203.986 59.7594 203.986 59.6942ZM216.861 51.5689C216.861 52.5657 215.94 55.1281 208.057 58.7453C208.24 58.9795 208.346 59.2552 208.368 59.5488C217.148 58.9372 219.765 60.6058 220.526 61.4874C220.626 60.8995 220.685 60.3058 220.685 59.6935C220.686 56.5618 219.237 53.7051 216.861 51.5689ZM204.145 59.0275C195.329 55.7511 194.698 53.1293 194.749 52.3301C192.822 54.3647 191.684 56.9141 191.684 59.6935C191.684 60.7376 191.843 61.7445 192.147 62.7056C192.807 61.7689 195.234 59.9205 204.001 59.8904C203.993 59.8238 203.985 59.7579 203.985 59.6935C203.986 59.46 204.036 59.2309 204.145 59.0275ZM205.509 61.4165C205.174 61.332 204.879 61.1816 204.63 60.9782C198.118 66.0005 194.815 65.964 193.597 65.6518C195.734 68.7426 199.481 70.9684 203.884 71.5506C203.139 70.7221 202.044 68.2027 205.509 61.4165ZM207.043 61.3377L207.052 61.3671L207.058 61.3614C207.058 61.3556 207.052 61.3442 207.043 61.3377ZM206.189 47.6859C203.856 47.6859 201.653 48.1428 199.705 48.9528C200.951 49.3066 203.624 50.8907 205.5 57.9712C205.717 57.906 205.951 57.8766 206.189 57.8766C206.313 57.8766 206.436 57.8816 206.551 57.8988C208.58 50.0084 211.573 49.0001 212.491 48.8805C210.587 48.1128 208.45 47.6859 206.189 47.6859ZM207.862 60.8644C207.646 61.0807 207.371 61.254 207.058 61.3614C211.23 67.513 210.694 70.2251 210.066 71.2627C214.302 70.2909 217.765 67.7637 219.49 64.4708C218.512 64.902 215.361 65.4663 207.862 60.8644ZM216.861 51.5689C216.861 52.5657 215.94 55.1281 208.057 58.7453C208.24 58.9795 208.346 59.2552 208.368 59.5488C217.148 58.9372 219.765 60.6058 220.526 61.4874C220.626 60.8995 220.685 60.3058 220.685 59.6935C220.686 56.5618 219.237 53.7051 216.861 51.5689ZM207.862 60.8644C207.646 61.0807 207.371 61.254 207.058 61.3614C211.23 67.513 210.694 70.2251 210.066 71.2627C214.302 70.2909 217.765 67.7637 219.49 64.4708C218.512 64.902 215.361 65.4663 207.862 60.8644ZM206.189 47.6859C203.856 47.6859 201.653 48.1428 199.705 48.9528C200.951 49.3066 203.624 50.8907 205.5 57.9712C205.717 57.906 205.951 57.8766 206.189 57.8766C206.313 57.8766 206.436 57.8816 206.551 57.8988C208.58 50.0084 211.573 49.0001 212.491 48.8805C210.587 48.1128 208.45 47.6859 206.189 47.6859ZM207.043 61.3377L207.052 61.3671L207.058 61.3614C207.058 61.3556 207.052 61.3442 207.043 61.3377ZM205.509 61.4165C205.174 61.332 204.879 61.1816 204.63 60.9782C198.118 66.0005 194.815 65.964 193.597 65.6518C195.734 68.7426 199.481 70.9684 203.884 71.5506C203.139 70.7221 202.044 68.2027 205.509 61.4165ZM204.145 59.0275C195.329 55.7511 194.698 53.1293 194.749 52.3301C192.822 54.3647 191.684 56.9141 191.684 59.6935C191.684 60.7376 191.843 61.7445 192.147 62.7056C192.807 61.7689 195.234 59.9205 204.001 59.8904C203.993 59.8238 203.985 59.7579 203.985 59.6935C203.986 59.46 204.036 59.2309 204.145 59.0275ZM216.861 51.5689C216.861 52.5657 215.94 55.1281 208.057 58.7453C208.24 58.9795 208.346 59.2552 208.368 59.5488C217.148 58.9372 219.765 60.6058 220.526 61.4874C220.626 60.8995 220.685 60.3058 220.685 59.6935C220.686 56.5618 219.237 53.7051 216.861 51.5689ZM204.145 59.0275C195.329 55.7511 194.698 53.1293 194.749 52.3301C192.822 54.3647 191.684 56.9141 191.684 59.6935C191.684 60.7376 191.843 61.7445 192.147 62.7056C192.807 61.7689 195.234 59.9205 204.001 59.8904C203.993 59.8238 203.985 59.7579 203.985 59.6935C203.986 59.46 204.036 59.2309 204.145 59.0275ZM205.509 61.4165C205.174 61.332 204.879 61.1816 204.63 60.9782C198.118 66.0005 194.815 65.964 193.597 65.6518C195.734 68.7426 199.481 70.9684 203.884 71.5506C203.139 70.7221 202.044 68.2027 205.509 61.4165ZM207.043 61.3377L207.052 61.3671L207.058 61.3614C207.058 61.3556 207.052 61.3442 207.043 61.3377ZM206.189 47.6859C203.856 47.6859 201.653 48.1428 199.705 48.9528C200.951 49.3066 203.624 50.8907 205.5 57.9712C205.717 57.906 205.951 57.8766 206.189 57.8766C206.313 57.8766 206.436 57.8816 206.551 57.8988C208.58 50.0084 211.573 49.0001 212.491 48.8805C210.587 48.1128 208.45 47.6859 206.189 47.6859ZM207.862 60.8644C207.646 61.0807 207.371 61.254 207.058 61.3614C211.23 67.513 210.694 70.2251 210.066 71.2627C214.302 70.2909 217.765 67.7637 219.49 64.4708C218.512 64.902 215.361 65.4663 207.862 60.8644ZM216.861 51.5689C216.861 52.5657 215.94 55.1281 208.057 58.7453C208.24 58.9795 208.346 59.2552 208.368 59.5488C217.148 58.9372 219.765 60.6058 220.526 61.4874C220.626 60.8995 220.685 60.3058 220.685 59.6935C220.686 56.5618 219.237 53.7051 216.861 51.5689ZM207.862 60.8644C207.646 61.0807 207.371 61.254 207.058 61.3614C211.23 67.513 210.694 70.2251 210.066 71.2627C214.302 70.2909 217.765 67.7637 219.49 64.4708C218.512 64.902 215.361 65.4663 207.862 60.8644ZM206.189 47.6859C203.856 47.6859 201.653 48.1428 199.705 48.9528C200.951 49.3066 203.624 50.8907 205.5 57.9712C205.717 57.906 205.951 57.8766 206.189 57.8766C206.313 57.8766 206.436 57.8816 206.551 57.8988C208.58 50.0084 211.573 49.0001 212.491 48.8805C210.587 48.1128 208.45 47.6859 206.189 47.6859ZM207.043 61.3377L207.052 61.3671L207.058 61.3614C207.058 61.3556 207.052 61.3442 207.043 61.3377ZM205.509 61.4165C205.174 61.332 204.879 61.1816 204.63 60.9782C198.118 66.0005 194.815 65.964 193.597 65.6518C195.734 68.7426 199.481 70.9684 203.884 71.5506C203.139 70.7221 202.044 68.2027 205.509 61.4165ZM204.145 59.0275C195.329 55.7511 194.698 53.1293 194.749 52.3301C192.822 54.3647 191.684 56.9141 191.684 59.6935C191.684 60.7376 191.843 61.7445 192.147 62.7056C192.807 61.7689 195.234 59.9205 204.001 59.8904C203.993 59.8238 203.985 59.7579 203.985 59.6935C203.986 59.46 204.036 59.2309 204.145 59.0275ZM216.861 51.5689C216.861 52.5657 215.94 55.1281 208.057 58.7453C208.24 58.9795 208.346 59.2552 208.368 59.5488C217.148 58.9372 219.765 60.6058 220.526 61.4874C220.626 60.8995 220.685 60.3058 220.685 59.6935C220.686 56.5618 219.237 53.7051 216.861 51.5689ZM204.145 59.0275C195.329 55.7511 194.698 53.1293 194.749 52.3301C192.822 54.3647 191.684 56.9141 191.684 59.6935C191.684 60.7376 191.843 61.7445 192.147 62.7056C192.807 61.7689 195.234 59.9205 204.001 59.8904C203.993 59.8238 203.985 59.7579 203.985 59.6935C203.986 59.46 204.036 59.2309 204.145 59.0275ZM205.509 61.4165C205.174 61.332 204.879 61.1816 204.63 60.9782C198.118 66.0005 194.815 65.964 193.597 65.6518C195.734 68.7426 199.481 70.9684 203.884 71.5506C203.139 70.7221 202.044 68.2027 205.509 61.4165ZM207.043 61.3377L207.052 61.3671L207.058 61.3614C207.058 61.3556 207.052 61.3442 207.043 61.3377ZM206.189 47.6859C203.856 47.6859 201.653 48.1428 199.705 48.9528C200.951 49.3066 203.624 50.8907 205.5 57.9712C205.717 57.906 205.951 57.8766 206.189 57.8766C206.313 57.8766 206.436 57.8816 206.551 57.8988C208.58 50.0084 211.573 49.0001 212.491 48.8805C210.587 48.1128 208.45 47.6859 206.189 47.6859ZM207.862 60.8644C207.646 61.0807 207.371 61.254 207.058 61.3614C211.23 67.513 210.694 70.2251 210.066 71.2627C214.302 70.2909 217.765 67.7637 219.49 64.4708C218.512 64.902 215.361 65.4663 207.862 60.8644ZM216.861 51.5689C216.861 52.5657 215.94 55.1281 208.057 58.7453C208.24 58.9795 208.346 59.2552 208.368 59.5488C217.148 58.9372 219.765 60.6058 220.526 61.4874C220.626 60.8995 220.685 60.3058 220.685 59.6935C220.686 56.5618 219.237 53.7051 216.861 51.5689ZM207.862 60.8644C207.646 61.0807 207.371 61.254 207.058 61.3614C211.23 67.513 210.694 70.2251 210.066 71.2627C214.302 70.2909 217.765 67.7637 219.49 64.4708C218.512 64.902 215.361 65.4663 207.862 60.8644ZM206.189 47.6859C203.856 47.6859 201.653 48.1428 199.705 48.9528C200.951 49.3066 203.624 50.8907 205.5 57.9712C205.717 57.906 205.951 57.8766 206.189 57.8766C206.313 57.8766 206.436 57.8816 206.551 57.8988C208.58 50.0084 211.573 49.0001 212.491 48.8805C210.587 48.1128 208.45 47.6859 206.189 47.6859ZM207.043 61.3377L207.052 61.3671L207.058 61.3614C207.058 61.3556 207.052 61.3442 207.043 61.3377ZM205.509 61.4165C205.174 61.332 204.879 61.1816 204.63 60.9782C198.118 66.0005 194.815 65.964 193.597 65.6518C195.734 68.7426 199.481 70.9684 203.884 71.5506C203.139 70.7221 202.044 68.2027 205.509 61.4165ZM204.145 59.0275C195.329 55.7511 194.698 53.1293 194.749 52.3301C192.822 54.3647 191.684 56.9141 191.684 59.6935C191.684 60.7376 191.843 61.7445 192.147 62.7056C192.807 61.7689 195.234 59.9205 204.001 59.8904C203.993 59.8238 203.985 59.7579 203.985 59.6935C203.986 59.46 204.036 59.2309 204.145 59.0275ZM216.861 51.5689C216.861 52.5657 215.94 55.1281 208.057 58.7453C208.24 58.9795 208.346 59.2552 208.368 59.5488C217.148 58.9372 219.765 60.6058 220.526 61.4874C220.626 60.8995 220.685 60.3058 220.685 59.6935C220.686 56.5618 219.237 53.7051 216.861 51.5689ZM204.145 59.0275C195.329 55.7511 194.698 53.1293 194.749 52.3301C192.822 54.3647 191.684 56.9141 191.684 59.6935C191.684 60.7376 191.843 61.7445 192.147 62.7056C192.807 61.7689 195.234 59.9205 204.001 59.8904C203.993 59.8238 203.985 59.7579 203.985 59.6935C203.986 59.46 204.036 59.2309 204.145 59.0275ZM205.509 61.4165C205.174 61.332 204.879 61.1816 204.63 60.9782C198.118 66.0005 194.815 65.964 193.597 65.6518C195.734 68.7426 199.481 70.9684 203.884 71.5506C203.139 70.7221 202.044 68.2027 205.509 61.4165ZM207.043 61.3377L207.052 61.3671L207.058 61.3614C207.058 61.3556 207.052 61.3442 207.043 61.3377ZM206.189 47.6859C203.856 47.6859 201.653 48.1428 199.705 48.9528C200.951 49.3066 203.624 50.8907 205.5 57.9712C205.717 57.906 205.951 57.8766 206.189 57.8766C206.313 57.8766 206.436 57.8816 206.551 57.8988C208.58 50.0084 211.573 49.0001 212.491 48.8805C210.587 48.1128 208.45 47.6859 206.189 47.6859ZM207.862 60.8644C207.646 61.0807 207.371 61.254 207.058 61.3614C211.23 67.513 210.694 70.2251 210.066 71.2627C214.302 70.2909 217.765 67.7637 219.49 64.4708C218.512 64.902 215.361 65.4663 207.862 60.8644ZM216.861 51.5689C216.861 52.5657 215.94 55.1281 208.057 58.7453C208.24 58.9795 208.346 59.2552 208.368 59.5488C217.148 58.9372 219.765 60.6058 220.526 61.4874C220.626 60.8995 220.685 60.3058 220.685 59.6935C220.686 56.5618 219.237 53.7051 216.861 51.5689ZM207.862 60.8644C207.646 61.0807 207.371 61.254 207.058 61.3614C211.23 67.513 210.694 70.2251 210.066 71.2627C214.302 70.2909 217.765 67.7637 219.49 64.4708C218.512 64.902 215.361 65.4663 207.862 60.8644ZM206.189 47.6859C203.856 47.6859 201.653 48.1428 199.705 48.9528C200.951 49.3066 203.624 50.8907 205.5 57.9712C205.717 57.906 205.951 57.8766 206.189 57.8766C206.313 57.8766 206.436 57.8816 206.551 57.8988C208.58 50.0084 211.573 49.0001 212.491 48.8805C210.587 48.1128 208.45 47.6859 206.189 47.6859ZM207.043 61.3377L207.052 61.3671L207.058 61.3614C207.058 61.3556 207.052 61.3442 207.043 61.3377ZM205.509 61.4165C205.174 61.332 204.879 61.1816 204.63 60.9782C198.118 66.0005 194.815 65.964 193.597 65.6518C195.734 68.7426 199.481 70.9684 203.884 71.5506C203.139 70.7221 202.044 68.2027 205.509 61.4165ZM204.145 59.0275C195.329 55.7511 194.698 53.1293 194.749 52.3301C192.822 54.3647 191.684 56.9141 191.684 59.6935C191.684 60.7376 191.843 61.7445 192.147 62.7056C192.807 61.7689 195.234 59.9205 204.001 59.8904C203.993 59.8238 203.985 59.7579 203.985 59.6935C203.986 59.46 204.036 59.2309 204.145 59.0275ZM216.861 51.5689C216.861 52.5657 215.94 55.1281 208.057 58.7453C208.24 58.9795 208.346 59.2552 208.368 59.5488C217.148 58.9372 219.765 60.6058 220.526 61.4874C220.626 60.8995 220.685 60.3058 220.685 59.6935C220.686 56.5618 219.237 53.7051 216.861 51.5689ZM204.145 59.0275C195.329 55.7511 194.698 53.1293 194.749 52.3301C192.822 54.3647 191.684 56.9141 191.684 59.6935C191.684 60.7376 191.843 61.7445 192.147 62.7056C192.807 61.7689 195.234 59.9205 204.001 59.8904C203.993 59.8238 203.985 59.7579 203.985 59.6935C203.986 59.46 204.036 59.2309 204.145 59.0275ZM205.509 61.4165C205.174 61.332 204.879 61.1816 204.63 60.9782C198.118 66.0005 194.815 65.964 193.597 65.6518C195.734 68.7426 199.481 70.9684 203.884 71.5506C203.139 70.7221 202.044 68.2027 205.509 61.4165ZM207.043 61.3377L207.052 61.3671L207.058 61.3614C207.058 61.3556 207.052 61.3442 207.043 61.3377ZM206.189 47.6859C203.856 47.6859 201.653 48.1428 199.705 48.9528C200.951 49.3066 203.624 50.8907 205.5 57.9712C205.717 57.906 205.951 57.8766 206.189 57.8766C206.313 57.8766 206.436 57.8816 206.551 57.8988C208.58 50.0084 211.573 49.0001 212.491 48.8805C210.587 48.1128 208.45 47.6859 206.189 47.6859ZM207.862 60.8644C207.646 61.0807 207.371 61.254 207.058 61.3614C211.23 67.513 210.694 70.2251 210.066 71.2627C214.302 70.2909 217.765 67.7637 219.49 64.4708C218.512 64.902 215.361 65.4663 207.862 60.8644ZM216.861 51.5689C216.861 52.5657 215.94 55.1281 208.057 58.7453C208.24 58.9795 208.346 59.2552 208.368 59.5488C217.148 58.9372 219.765 60.6058 220.526 61.4874C220.626 60.8995 220.685 60.3058 220.685 59.6935C220.686 56.5618 219.237 53.7051 216.861 51.5689ZM207.862 60.8644C207.646 61.0807 207.371 61.254 207.058 61.3614C211.23 67.513 210.694 70.2251 210.066 71.2627C214.302 70.2909 217.765 67.7637 219.49 64.4708C218.512 64.902 215.361 65.4663 207.862 60.8644ZM206.189 47.6859C203.856 47.6859 201.653 48.1428 199.705 48.9528C200.951 49.3066 203.624 50.8907 205.5 57.9712C205.717 57.906 205.951 57.8766 206.189 57.8766C206.313 57.8766 206.436 57.8816 206.551 57.8988C208.58 50.0084 211.573 49.0001 212.491 48.8805C210.587 48.1128 208.45 47.6859 206.189 47.6859ZM207.043 61.3377L207.052 61.3671L207.058 61.3614C207.058 61.3556 207.052 61.3442 207.043 61.3377ZM205.509 61.4165C205.174 61.332 204.879 61.1816 204.63 60.9782C198.118 66.0005 194.815 65.964 193.597 65.6518C195.734 68.7426 199.481 70.9684 203.884 71.5506C203.139 70.7221 202.044 68.2027 205.509 61.4165ZM204.145 59.0275C195.329 55.7511 194.698 53.1293 194.749 52.3301C192.822 54.3647 191.684 56.9141 191.684 59.6935C191.684 60.7376 191.843 61.7445 192.147 62.7056C192.807 61.7689 195.234 59.9205 204.001 59.8904C203.993 59.8238 203.985 59.7579 203.985 59.6935C203.986 59.46 204.036 59.2309 204.145 59.0275ZM216.861 51.5689C216.861 52.5657 215.94 55.1281 208.057 58.7453C208.24 58.9795 208.346 59.2552 208.368 59.5488C217.148 58.9372 219.765 60.6058 220.526 61.4874C220.626 60.8995 220.685 60.3058 220.685 59.6935C220.686 56.5618 219.237 53.7051 216.861 51.5689ZM204.145 59.0275C195.329 55.7511 194.698 53.1293 194.749 52.3301C192.822 54.3647 191.684 56.9141 191.684 59.6935C191.684 60.7376 191.843 61.7445 192.147 62.7056C192.807 61.7689 195.234 59.9205 204.001 59.8904C203.993 59.8238 203.985 59.7579 203.985 59.6935C203.986 59.46 204.036 59.2309 204.145 59.0275ZM205.509 61.4165C205.174 61.332 204.879 61.1816 204.63 60.9782C198.118 66.0005 194.815 65.964 193.597 65.6518C195.734 68.7426 199.481 70.9684 203.884 71.5506C203.139 70.7221 202.044 68.2027 205.509 61.4165ZM207.043 61.3377L207.052 61.3671L207.058 61.3614C207.058 61.3556 207.052 61.3442 207.043 61.3377ZM206.189 47.6859C203.856 47.6859 201.653 48.1428 199.705 48.9528C200.951 49.3066 203.624 50.8907 205.5 57.9712C205.717 57.906 205.951 57.8766 206.189 57.8766C206.313 57.8766 206.436 57.8816 206.551 57.8988C208.58 50.0084 211.573 49.0001 212.491 48.8805C210.587 48.1128 208.45 47.6859 206.189 47.6859ZM207.862 60.8644C207.646 61.0807 207.371 61.254 207.058 61.3614C211.23 67.513 210.694 70.2251 210.066 71.2627C214.302 70.2909 217.765 67.7637 219.49 64.4708C218.512 64.902 215.361 65.4663 207.862 60.8644ZM216.861 51.5689C216.861 52.5657 215.94 55.1281 208.057 58.7453C208.24 58.9795 208.346 59.2552 208.368 59.5488C217.148 58.9372 219.765 60.6058 220.526 61.4874C220.626 60.8995 220.685 60.3058 220.685 59.6935C220.686 56.5618 219.237 53.7051 216.861 51.5689ZM207.862 60.8644C207.646 61.0807 207.371 61.254 207.058 61.3614C211.23 67.513 210.694 70.2251 210.066 71.2627C214.302 70.2909 217.765 67.7637 219.49 64.4708C218.512 64.902 215.361 65.4663 207.862 60.8644ZM206.189 47.6859C203.856 47.6859 201.653 48.1428 199.705 48.9528C200.951 49.3066 203.624 50.8907 205.5 57.9712C205.717 57.906 205.951 57.8766 206.189 57.8766C206.313 57.8766 206.436 57.8816 206.551 57.8988C208.58 50.0084 211.573 49.0001 212.491 48.8805C210.587 48.1128 208.45 47.6859 206.189 47.6859ZM207.043 61.3377L207.052 61.3671L207.058 61.3614C207.058 61.3556 207.052 61.3442 207.043 61.3377ZM205.509 61.4165C205.174 61.332 204.879 61.1816 204.63 60.9782C198.118 66.0005 194.815 65.964 193.597 65.6518C195.734 68.7426 199.481 70.9684 203.884 71.5506C203.139 70.7221 202.044 68.2027 205.509 61.4165ZM204.145 59.0275C195.329 55.7511 194.698 53.1293 194.749 52.3301C192.822 54.3647 191.684 56.9141 191.684 59.6935C191.684 60.7376 191.843 61.7445 192.147 62.7056C192.807 61.7689 195.234 59.9205 204.001 59.8904C203.993 59.8238 203.985 59.7579 203.985 59.6935C203.986 59.46 204.036 59.2309 204.145 59.0275ZM207.043 61.3377L207.052 61.3671L207.058 61.3614C207.058 61.3556 207.052 61.3442 207.043 61.3377ZM207.043 61.3377L207.052 61.3671L207.058 61.3614C207.058 61.3556 207.052 61.3442 207.043 61.3377ZM207.043 61.3377L207.052 61.3671L207.058 61.3614C207.058 61.3556 207.052 61.3442 207.043 61.3377ZM207.043 61.3377L207.052 61.3671L207.058 61.3614C207.058 61.3556 207.052 61.3442 207.043 61.3377ZM207.043 61.3377L207.052 61.3671L207.058 61.3614C207.058 61.3556 207.052 61.3442 207.043 61.3377ZM207.043 61.3377L207.052 61.3671L207.058 61.3614C207.058 61.3556 207.052 61.3442 207.043 61.3377ZM207.043 61.3377L207.052 61.3671L207.058 61.3614C207.058 61.3556 207.052 61.3442 207.043 61.3377ZM207.043 61.3377L207.052 61.3671L207.058 61.3614C207.058 61.3556 207.052 61.3442 207.043 61.3377ZM207.043 61.3377L207.052 61.3671L207.058 61.3614C207.058 61.3556 207.052 61.3442 207.043 61.3377ZM207.043 61.3377L207.052 61.3671L207.058 61.3614C207.058 61.3556 207.052 61.3442 207.043 61.3377Z" fill="white" fill-opacity="0.5"/>
<path d="M207.058 61.3619L207.051 61.3678L207.042 61.3377C207.051 61.3443 207.058 61.3561 207.058 61.3619Z" fill="white" fill-opacity="0.5"/>
<path d="M208.384 59.6942C208.384 60.126 208.196 60.5277 207.892 60.8407C207.878 60.8529 207.871 60.8579 207.863 60.8643C207.647 61.0806 207.372 61.2539 207.059 61.3613C207.059 61.3556 207.052 61.3441 207.043 61.3377L207.052 61.3671C206.791 61.458 206.495 61.5125 206.189 61.5125C205.957 61.5125 205.733 61.4816 205.525 61.4215C205.515 61.4279 205.515 61.4215 205.509 61.4165C205.175 61.332 204.879 61.1816 204.631 60.9782C204.625 60.9725 204.617 60.9603 204.603 60.9539C204.285 60.6832 204.066 60.3244 204.008 59.9333C204.001 59.9212 204.001 59.9033 204.001 59.8911C203.994 59.8245 203.986 59.7586 203.986 59.6942C203.986 59.46 204.037 59.2308 204.146 59.0274C204.146 59.0088 204.16 58.9852 204.167 58.9673C204.413 58.5054 204.877 58.1444 205.456 57.9833C205.472 57.9704 205.485 57.9704 205.5 57.9704C205.717 57.9052 205.95 57.8759 206.188 57.8759C206.312 57.8759 206.435 57.8809 206.55 57.8981C206.572 57.9053 206.594 57.9052 206.616 57.911C207.218 58.0069 207.731 58.3077 208.043 58.7209C208.05 58.7274 208.057 58.7338 208.057 58.7453C208.241 58.9795 208.346 59.2552 208.369 59.5488C208.376 59.5552 208.376 59.5674 208.376 59.5731V59.5789C208.384 59.6218 208.384 59.6519 208.384 59.6942Z" fill="white" fill-opacity="0.5"/>
<path d="M207.058 61.3619L207.051 61.3678L207.042 61.3377C207.051 61.3443 207.058 61.3561 207.058 61.3619Z" fill="white" fill-opacity="0.5"/>
<path d="M207.058 61.3619L207.051 61.3678L207.042 61.3377C207.051 61.3443 207.058 61.3561 207.058 61.3619Z" fill="white" fill-opacity="0.5"/>
</svg>
