<?xml version="1.0" encoding="UTF-8"?>
<!DOCTYPE svg PUBLIC "-//W3C//DTD SVG 1.1//EN" "http://www.w3.org/Graphics/SVG/1.1/DTD/svg11.dtd">
<svg xmlns="http://www.w3.org/2000/svg" version="1.1" width="101px" height="84px" style="shape-rendering:geometricPrecision; text-rendering:geometricPrecision; image-rendering:optimizeQuality; fill-rule:evenodd; clip-rule:evenodd" xmlns:xlink="http://www.w3.org/1999/xlink">
<g><path style="opacity:0.053" fill="#000000" d="M 100.5,3.5 C 100.5,4.5 100.5,5.5 100.5,6.5C 73.4979,6.33336 46.4979,6.50003 19.5,7C 18.8419,20.1042 18.1752,33.2709 17.5,46.5C 5.95375,51.1179 3.45375,58.7846 10,69.5C 18.9639,75.2599 26.2973,73.5932 32,64.5C 33.8929,55.2789 30.3929,49.2789 21.5,46.5C 20.5009,33.8508 20.1676,21.1842 20.5,8.5C 47.1667,8.5 73.8333,8.5 100.5,8.5C 100.5,12.5 100.5,16.5 100.5,20.5C 76.831,20.3334 53.1643,20.5 29.5,21C 28.3534,28.4201 28.1868,35.9201 29,43.5C 40.8712,52.1378 43.5378,63.1378 37,76.5C 34.5361,79.481 31.7028,81.8144 28.5,83.5C 22.5,83.5 16.5,83.5 10.5,83.5C 5.85837,80.8584 2.1917,77.1917 -0.5,72.5C -0.5,66.8333 -0.5,61.1667 -0.5,55.5C 0.374833,53.4319 1.5415,51.4319 3,49.5C 5.65302,47.845 7.98636,45.845 10,43.5C 10.3333,32.8333 10.6667,22.1667 11,11.5C 11.5163,8.96642 12.683,6.79976 14.5,5C 43.0784,3.51653 71.7451,3.01653 100.5,3.5 Z"/></g>
<g><path style="opacity:0.563" fill="#fefefe" d="M 100.5,6.5 C 100.5,7.16667 100.5,7.83333 100.5,8.5C 73.8333,8.5 47.1667,8.5 20.5,8.5C 20.1676,21.1842 20.5009,33.8508 21.5,46.5C 30.3929,49.2789 33.8929,55.2789 32,64.5C 26.2973,73.5932 18.9639,75.2599 10,69.5C 3.45375,58.7846 5.95375,51.1179 17.5,46.5C 18.1752,33.2709 18.8419,20.1042 19.5,7C 46.4979,6.50003 73.4979,6.33336 100.5,6.5 Z"/></g>
</svg>
