<svg width="16" height="16" viewBox="0 0 16 16" fill="none" xmlns="http://www.w3.org/2000/svg">
<mask id="mask0_70_4708" style="mask-type:alpha" maskUnits="userSpaceOnUse" x="0" y="0" width="16" height="16">
<rect width="16" height="16" fill="#D9D9D9"/>
</mask>
<g mask="url(#mask0_70_4708)">
<path d="M7.99999 9.98331C7.9111 9.98331 7.8251 9.96664 7.74199 9.9333C7.65844 9.89997 7.58888 9.85553 7.53333 9.79997L4.46666 6.73331C4.34444 6.61108 4.28333 6.45553 4.28333 6.26664C4.28333 6.07775 4.34444 5.92219 4.46666 5.79997C4.58888 5.67775 4.74444 5.61664 4.93333 5.61664C5.12221 5.61664 5.27777 5.67775 5.39999 5.79997L7.99999 8.39997L10.6 5.79997C10.7222 5.67775 10.8778 5.61664 11.0667 5.61664C11.2555 5.61664 11.4111 5.67775 11.5333 5.79997C11.6555 5.92219 11.7167 6.07775 11.7167 6.26664C11.7167 6.45553 11.6555 6.61108 11.5333 6.73331L8.46666 9.79997C8.39999 9.86664 8.32777 9.91375 8.24999 9.9413C8.17221 9.9693 8.08888 9.98331 7.99999 9.98331Z" fill="#586A84"/>
</g>
</svg>
