<svg width="13" height="15" viewBox="0 0 13 15" fill="none" xmlns="http://www.w3.org/2000/svg">
<g clip-path="url(#clip0_1_2677)">
<path d="M9.28571 3.75C9.28571 3.38066 9.21366 3.01493 9.07366 2.6737C8.93367 2.33247 8.72847 2.02243 8.4698 1.76126C8.21112 1.5001 7.90403 1.29293 7.56605 1.15159C7.22807 1.01025 6.86583 0.9375 6.5 0.9375C6.13417 0.9375 5.77193 1.01025 5.43395 1.15159C5.09597 1.29293 4.78888 1.5001 4.5302 1.76126C4.27152 2.02243 4.06633 2.33247 3.92634 2.6737C3.78634 3.01493 3.71429 3.38066 3.71429 3.75C3.71429 4.11934 3.78634 4.48507 3.92634 4.8263C4.06633 5.16753 4.27152 5.47757 4.5302 5.73874C4.78888 5.9999 5.09597 6.20707 5.43395 6.34841C5.77193 6.48975 6.13417 6.5625 6.5 6.5625C6.86583 6.5625 7.22807 6.48975 7.56605 6.34841C7.90403 6.20707 8.21112 5.9999 8.4698 5.73874C8.72847 5.47757 8.93367 5.16753 9.07366 4.8263C9.21366 4.48507 9.28571 4.11934 9.28571 3.75ZM2.78571 3.75C2.78571 2.75544 3.17704 1.80161 3.8736 1.09835C4.57017 0.395088 5.51491 0 6.5 0C7.48509 0 8.42983 0.395088 9.1264 1.09835C9.82296 1.80161 10.2143 2.75544 10.2143 3.75C10.2143 4.74456 9.82296 5.69839 9.1264 6.40165C8.42983 7.10491 7.48509 7.5 6.5 7.5C5.51491 7.5 4.57017 7.10491 3.8736 6.40165C3.17704 5.69839 2.78571 4.74456 2.78571 3.75ZM0.928571 14.0625H12.0714C12.0366 11.7275 10.1504 9.84375 7.82612 9.84375H5.17388C2.85246 9.84375 0.966295 11.7275 0.928571 14.0625ZM0 14.1299C0 11.2441 2.31562 8.90625 5.17388 8.90625H7.82612C10.6844 8.90625 13 11.2441 13 14.1299C13 14.6104 12.6141 15 12.1382 15H0.86183C0.385938 15 0 14.6104 0 14.1299Z" fill="white" fill-opacity="0.6"/>
</g>
<defs>
<clipPath id="clip0_1_2677">
<rect width="13" height="15" fill="white"/>
</clipPath>
</defs>
</svg>
