<svg width="40" height="40" viewBox="0 0 40 40" fill="none" xmlns="http://www.w3.org/2000/svg">
<circle cx="20" cy="20" r="20" fill="white" fill-opacity="0.1"/>
<g clip-path="url(#clip0_1_2746)">
<path d="M22.2857 15.75C22.2857 15.3807 22.2137 15.0149 22.0737 14.6737C21.9337 14.3325 21.7285 14.0224 21.4698 13.7613C21.2111 13.5001 20.904 13.2929 20.566 13.1516C20.2281 13.0102 19.8658 12.9375 19.5 12.9375C19.1342 12.9375 18.7719 13.0102 18.434 13.1516C18.096 13.2929 17.7889 13.5001 17.5302 13.7613C17.2715 14.0224 17.0663 14.3325 16.9263 14.6737C16.7863 15.0149 16.7143 15.3807 16.7143 15.75C16.7143 16.1193 16.7863 16.4851 16.9263 16.8263C17.0663 17.1675 17.2715 17.4776 17.5302 17.7387C17.7889 17.9999 18.096 18.2071 18.434 18.3484C18.7719 18.4898 19.1342 18.5625 19.5 18.5625C19.8658 18.5625 20.2281 18.4898 20.566 18.3484C20.904 18.2071 21.2111 17.9999 21.4698 17.7387C21.7285 17.4776 21.9337 17.1675 22.0737 16.8263C22.2137 16.4851 22.2857 16.1193 22.2857 15.75ZM15.7857 15.75C15.7857 14.7554 16.177 13.8016 16.8736 13.0983C17.5702 12.3951 18.5149 12 19.5 12C20.4851 12 21.4298 12.3951 22.1264 13.0983C22.823 13.8016 23.2143 14.7554 23.2143 15.75C23.2143 16.7446 22.823 17.6984 22.1264 18.4017C21.4298 19.1049 20.4851 19.5 19.5 19.5C18.5149 19.5 17.5702 19.1049 16.8736 18.4017C16.177 17.6984 15.7857 16.7446 15.7857 15.75ZM13.9286 26.0625H25.0714C25.0366 23.7275 23.1504 21.8438 20.8261 21.8438H18.1739C15.8525 21.8438 13.9663 23.7275 13.9286 26.0625ZM13 26.1299C13 23.2441 15.3156 20.9062 18.1739 20.9062H20.8261C23.6844 20.9062 26 23.2441 26 26.1299C26 26.6104 25.6141 27 25.1382 27H13.8618C13.3859 27 13 26.6104 13 26.1299Z" fill="white" fill-opacity="0.6"/>
</g>
<defs>
<clipPath id="clip0_1_2746">
<rect width="13" height="15" fill="white" transform="translate(13 12)"/>
</clipPath>
</defs>
</svg>
