<svg width="166" height="321" viewBox="0 0 166 321" fill="none" xmlns="http://www.w3.org/2000/svg">
<path fill-rule="evenodd" clip-rule="evenodd" d="M8.11536 211.075H15.4263V200.269C15.4188 200.198 15.4188 200.128 15.4263 200.059L15.4263 119.775C15.376 119.214 15.7333 118.67 16.3273 118.476C17.0294 118.252 17.7945 118.601 18.0386 119.261L32.5322 158.81C32.5775 158.934 32.6002 159.066 32.6027 159.203C32.6027 159.302 32.877 180.145 32.7034 198.419C32.7134 198.509 32.7109 198.596 32.7008 198.681C32.6782 200.837 32.653 202.957 32.6177 205C32.6253 205.071 32.6228 205.146 32.6153 205.217C32.4542 214.401 32.1471 222.017 31.5784 224.535C29.7965 232.391 18.0135 255.861 17.9808 255.929C17.7669 256.356 17.3037 256.653 16.7702 256.653C16.0278 256.653 15.4288 256.09 15.4288 255.397L15.4288 213.603H8.11789L8.11789 269.671C8.11789 277.076 8.55073 289.444 12.7133 299.889C16.7828 310.084 24.4839 318.491 39.0152 318.491H83.0067H126.996C141.527 318.491 149.228 310.086 153.295 299.889C157.46 289.444 157.89 277.074 157.89 269.671L157.89 213.603H150.582L150.582 255.397C150.582 256.09 149.981 256.653 149.241 256.653C148.705 256.653 148.242 256.356 148.028 255.929C147.995 255.861 136.209 232.391 134.433 224.535C133.861 222.019 133.552 214.399 133.396 205.215C133.386 205.146 133.386 205.073 133.391 205.003C133.355 202.957 133.328 200.837 133.308 198.679C133.297 198.596 133.295 198.509 133.305 198.422C133.134 180.15 133.406 159.304 133.408 159.203C133.408 159.066 133.436 158.934 133.474 158.81L147.972 119.263C148.214 118.606 148.976 118.255 149.681 118.479C150.275 118.672 150.635 119.216 150.585 119.777V200.062C150.59 200.13 150.59 200.201 150.585 200.271V211.077H157.893V118.502C157.893 118.316 157.891 118.137 157.885 117.956L150.242 117.951C149.658 117.951 149.112 117.609 148.911 117.065L147.456 113.161L131.75 147.622C131.672 147.813 131.548 147.973 131.395 148.103V235.037C131.604 235.214 131.76 235.452 131.82 235.727L139.816 273.872C139.911 274.322 139.733 274.765 139.395 275.05V304.535C139.395 308.218 135.968 310.923 131.337 312.683C126.913 314.363 121.351 315.202 116.753 315.202H83.0067H49.258C44.66 315.202 39.0982 314.363 34.6739 312.683C30.0407 310.923 26.6155 308.218 26.6155 304.535V275.05C26.2757 274.765 26.0996 274.322 26.1952 273.872L34.1957 235.73C34.2536 235.452 34.4071 235.211 34.6134 235.037L34.6134 148.103C34.4624 147.976 34.3417 147.813 34.2612 147.622L18.552 113.158L17.0974 117.065C16.8961 117.609 16.35 117.951 15.7661 117.956H8.12296C8.11793 118.137 8.11536 118.316 8.11536 118.502L8.11536 211.075ZM18.104 201.282L30.0155 199.951C29.9979 201.433 29.9777 202.896 29.9601 204.322L18.104 210.24L18.104 201.282ZM18.104 198.747L18.104 127.204L29.9224 159.446C29.9526 161.632 30.1791 180.503 30.0407 197.416L18.104 198.747ZM36.4104 148.188C51.7823 142.733 82.2593 142.114 83.0118 142.099C84.1266 142.121 114.322 142.766 129.6 148.188V234.839C113.496 237.492 83.8347 237.747 83.0143 237.751H82.9942C82.1762 237.749 52.5146 237.494 36.4104 234.839L36.4104 148.188ZM83.0293 139.59H82.9513L82.9262 139.592C81.6075 139.618 52.1044 140.266 36.2443 145.568L20.3842 110.772C23.8522 108.114 40.9178 96.9431 83.0042 96.9431H83.0394C125.096 96.9502 142.156 108.114 145.624 110.772L129.762 145.568C113.562 140.151 83.1199 139.592 83.0293 139.59ZM20.2156 107.756C26.2506 103.778 44.5267 94.4291 82.969 94.4197H83.0067C121.467 94.4197 139.753 103.778 145.793 107.756C143.767 97.6994 136.844 63.4805 133.869 50.3424C132.152 42.772 128.606 34.6879 120.946 28.5147C113.252 22.3203 101.391 18.0179 83.0269 18.0132H83.0067C64.6274 18.0132 52.7613 22.3179 45.0653 28.5147C37.4045 34.6879 33.856 42.7696 32.1396 50.3424C29.1624 63.4805 22.2415 97.6994 20.2156 107.756ZM5.42249 212.333L5.42249 118.498C5.42249 118.311 5.42506 118.132 5.4301 117.951H1.51668C0.779293 117.951 0.172702 117.423 0.107269 116.747C-0.0261154 115.863 -1.16365 106.509 8.55828 105.43C6.97529 103.816 5.42004 101.498 5.42004 98.6066L5.42004 46.4217C5.42004 40.2768 6.2002 28.649 16.4506 18.5056C26.5727 8.49181 45.9436 0.00012207 83.0017 0.00012207C120.06 0.00012207 139.428 8.49181 149.548 18.5056C159.801 28.649 160.578 40.2791 160.578 46.4217V98.6066C160.578 101.498 159.023 103.816 157.445 105.43C167.162 106.509 166.024 115.863 165.893 116.747C165.828 117.423 165.222 117.951 164.484 117.951H160.573C160.576 118.132 160.578 118.311 160.578 118.498V212.333L160.578 269.661C160.578 277.232 160.133 289.903 155.804 300.756C151.377 311.853 142.951 321 126.993 321H83.0067H39.0152C23.0544 321 14.6311 311.853 10.2042 300.756C5.87556 289.905 5.42756 277.234 5.42756 269.661L5.42756 212.333H5.42249ZM18.1494 108.613L18.2148 108.642C19.8582 100.466 27.2849 63.6902 30.3854 49.9937C31.9684 43.0194 35.0539 35.6186 41.3204 29.5255L24.3656 37.923C24.0535 38.0761 23.686 38.0384 23.4193 37.857C23.4117 37.8523 21.9848 36.8674 20.8548 35.3783L12.1572 105.15C12.6807 105.531 13.0732 105.758 13.1714 105.814L18.1494 108.613ZM147.791 108.644L147.862 108.613L152.837 105.817C152.935 105.76 153.325 105.534 153.849 105.154L145.154 35.3806C144.026 36.8674 142.597 37.8546 142.589 37.8594C142.325 38.0408 141.955 38.0785 141.643 37.9253L124.685 29.5279C130.952 35.621 134.042 43.0218 135.62 49.9961C138.723 63.6926 146.145 100.468 147.791 108.644ZM21.3103 31.7215L21.3179 31.6626L21.3204 31.6437C21.3531 31.4175 21.416 31.1866 21.5242 30.9604C22.8002 28.1683 26.3387 23.423 27.222 22.259L51.9031 17.4995L55.3837 20.7393C52.7789 21.7454 50.4334 22.8975 48.3219 24.1675L24.0535 36.1817C23.14 35.456 21.1115 33.6088 21.3103 31.7215ZM146.465 31.4458L146.467 31.4694L155.477 103.753C156.703 102.508 157.89 100.751 157.89 98.6066V46.4217C157.89 40.6326 157.166 29.6834 147.61 20.228C137.921 10.643 119.176 2.51889 83.0042 2.51889C46.827 2.51889 28.0827 10.643 18.396 20.228C8.84014 29.6834 8.11282 40.6326 8.11282 46.4217L8.11282 98.6066C8.11282 100.751 9.30325 102.508 10.5264 103.753L19.5386 31.4694L19.5411 31.434C19.594 31.0617 19.6971 30.6824 19.8733 30.3007C21.4085 26.9455 25.9586 21.0291 25.9712 21.0126C26.1071 20.8359 26.3034 20.7252 26.5199 20.6827L52.0113 15.7677C52.3133 15.7112 52.6153 15.8054 52.8217 15.9963L57.2032 20.0725C64.0108 17.7281 72.4669 16.3379 82.979 16.3332L83.0042 16.3309C93.5239 16.3309 101.987 17.7234 108.803 20.0725L113.184 15.9963C113.391 15.8054 113.69 15.7112 113.995 15.7677L139.489 20.6827C139.702 20.7228 139.896 20.8359 140.035 21.0126C140.047 21.0315 144.597 26.9455 146.133 30.3007C146.311 30.6871 146.414 31.0665 146.465 31.4458ZM18.104 213.084L29.9048 207.189C29.7437 215.264 29.4518 221.772 28.9459 224.005C27.7404 229.333 21.6426 242.348 18.1016 249.659L18.104 213.084ZM36.579 237.417C52.9701 239.999 81.9824 240.258 82.969 240.263H82.9816H82.9942H83.0143H83.0293H83.0419C84.0285 240.254 113.038 239.997 129.434 237.417L137.002 273.511C133.688 275.351 118.59 282.441 83.0092 282.441C47.4234 282.441 32.3284 275.349 29.0139 273.511L36.579 237.417ZM117.692 24.1675C115.578 22.8975 113.235 21.743 110.63 20.7393L114.108 17.4995L138.789 22.259C139.672 23.4253 143.211 28.1683 144.487 30.9604C144.592 31.1819 144.653 31.4105 144.688 31.6367L144.691 31.6626L144.706 31.7663C144.867 33.6418 142.863 35.4655 141.957 36.1841L117.692 24.1675ZM135.99 199.951L147.899 201.282V210.24L136.043 204.322C136.026 202.896 136.005 201.433 135.99 199.951ZM135.968 197.413C135.829 180.501 136.056 161.632 136.083 159.443L147.902 127.201V198.745L135.968 197.413ZM83.0067 284.962C116.798 284.962 132.754 278.52 137.599 276.07V304.533C137.599 307.4 134.649 309.61 130.66 311.125C126.457 312.723 121.15 313.519 116.75 313.519H83.0067H49.258C44.8614 313.519 39.5487 312.723 35.3509 311.125C31.3595 309.61 28.4098 307.4 28.4098 304.533V276.07C33.257 278.518 49.2127 284.962 83.0067 284.962ZM137.057 224.005C136.554 221.774 136.262 215.264 136.099 207.189L147.899 213.084L147.899 249.657C144.361 242.348 138.268 229.333 137.057 224.005Z" fill="white"/>
</svg>
